<svg width="40" height="44" viewBox="0 0 40 44" fill="none" xmlns="http://www.w3.org/2000/svg">
<path fill-rule="evenodd" clip-rule="evenodd" d="M13.9607 32.7714L17.676 38.0827C18.0132 38.5648 17.9541 39.2474 17.5445 39.6561L16.2668 40.9316C16.0386 41.1593 15.764 41.2606 15.4571 41.2301C15.1503 41.1996 14.8976 41.045 14.7093 40.7768L10.5903 34.9118L13.9607 32.7714ZM34.3411 19.1401H38.125C38.7302 19.1401 39.22 18.5964 39.2187 17.9315C39.2175 17.2658 38.7239 16.7278 38.1195 16.7278H34.3357C33.7304 16.7278 33.2407 17.2715 33.2419 17.9363C33.2431 18.6023 33.7366 19.1401 34.3411 19.1401ZM29.8498 8.18122L31.7418 4.57666C32.044 4.00079 31.8673 3.26173 31.3437 2.9276C30.8209 2.59399 30.1479 2.78864 29.8453 3.36519L27.9534 6.96976C27.6511 7.54562 27.8278 8.28469 28.3514 8.61881C28.8743 8.95242 29.5471 8.75777 29.8498 8.18122ZM34.2276 12.4989L37.3341 10.526C37.8614 10.1911 38.0421 9.44957 37.7376 8.8694C37.4332 8.28933 36.759 8.09064 36.2316 8.42554L33.1252 10.3985C32.5978 10.7334 32.4172 11.4749 32.7217 12.0551C33.0261 12.6351 33.7003 12.8338 34.2276 12.4989ZM29.3418 17.9274L33.0059 24.9084C33.6939 26.2191 33.2818 27.9106 32.0903 28.6673C30.9784 29.3735 29.5651 29.0259 28.8221 27.9112H28.822C24.7662 27.2325 19.4831 27.9615 14.2297 30.2142L9.17925 20.5919C13.5811 16.7179 16.8066 12.0742 18.3003 7.87124L18.3003 7.87107C17.7757 6.60022 18.2067 5.06194 19.3272 4.3503C20.5188 3.59353 22.0564 4.04685 22.7444 5.35748L26.4085 12.3385C26.5142 12.2487 26.6253 12.1667 26.741 12.0933C28.1568 11.1941 29.9672 11.7277 30.7846 13.2851C31.6021 14.8426 31.117 16.8341 29.7011 17.7333C29.5855 17.8068 29.4654 17.8716 29.3418 17.9274ZM12.9598 31.2321L7.66769 21.1494L3.46058 23.8213C0.904177 25.4449 0.0202701 29.0739 1.49613 31.8859L1.49621 31.886C2.97215 34.6979 6.27121 35.6703 8.82761 34.0469L13.0347 31.375L12.9598 31.2321Z" fill="white"/>
</svg>
