<svg width="15" height="19" viewBox="0 0 15 19" fill="none" xmlns="http://www.w3.org/2000/svg">
<g filter="url(#filter0_d_616_6055)">
<path d="M6.02148 11.8478L7.60619 12.7763L4.38816 18.4327L3.46452 16.3422L6.02148 11.8478Z" fill="#CE4444"/>
<path d="M6.02148 11.8478L4.43678 10.9194L1.21875 16.5757L3.46452 16.3422L6.02148 11.8478Z" fill="#983535"/>
<path d="M8.2832 11.8478L6.6985 12.7763L9.91653 18.4327L10.8402 16.3422L8.2832 11.8478Z" fill="#983535"/>
<path d="M8.2832 11.8478L9.86791 10.9194L13.0859 16.5757L10.8402 16.3422L8.2832 11.8478Z" fill="#CE4444"/>
<path d="M7.10426 13.5382C10.145 13.5382 12.6089 11.0369 12.6089 7.95283C12.6089 4.86877 10.145 2.36742 7.10426 2.36742C4.06348 2.36742 1.59966 4.86877 1.59966 7.95283C1.59966 11.0369 4.06348 13.5382 7.10426 13.5382Z" fill="url(#paint0_linear_616_6055)" stroke="#765C00" stroke-width="0.0975551"/>
<ellipse cx="7.10447" cy="7.95295" rx="4.25877" ry="4.32184" fill="#A88300"/>
<mask id="mask0_616_6055" style="mask-type:alpha" maskUnits="userSpaceOnUse" x="3" y="4" width="9" height="9">
<ellipse cx="7.33118" cy="8.41387" rx="4.26868" ry="4.3319" fill="#C28B37"/>
</mask>
<g mask="url(#mask0_616_6055)">
<ellipse cx="7.10462" cy="7.95257" rx="4.26868" ry="4.3319" fill="#C09525"/>
</g>
<path d="M7.12768 4.93939L8.04849 6.8083L9.89012 7.04191L8.62554 8.48097L8.96931 10.5461L7.12768 9.61166L5.28605 10.5461L5.63289 8.48097L4.36523 7.04191L6.20686 6.8083L7.12768 4.93939Z" fill="url(#paint1_linear_616_6055)"/>
<path d="M1.82903 4.59658L2.42942 3.25565L1.82903 1.91472L3.15039 2.52401L4.47175 1.91472L3.87136 3.25565L4.47175 4.59658L3.15039 3.9873L1.82903 4.59658Z" fill="white"/>
</g>
<defs>
<filter id="filter0_d_616_6055" x="0.431378" y="0.497113" width="13.8011" height="19.0821" filterUnits="userSpaceOnUse" color-interpolation-filters="sRGB">
<feFlood flood-opacity="0" result="BackgroundImageFix"/>
<feColorMatrix in="SourceAlpha" type="matrix" values="0 0 0 0 0 0 0 0 0 0 0 0 0 0 0 0 0 0 127 0" result="hardAlpha"/>
<feOffset dx="0.53504" dy="0.53504"/>
<feGaussianBlur stdDeviation="0.305737"/>
<feComposite in2="hardAlpha" operator="out"/>
<feColorMatrix type="matrix" values="0 0 0 0 0 0 0 0 0 0 0 0 0 0 0 0 0 0 0.3 0"/>
<feBlend mode="normal" in2="BackgroundImageFix" result="effect1_dropShadow_616_6055"/>
<feBlend mode="normal" in="SourceGraphic" in2="effect1_dropShadow_616_6055" result="shape"/>
</filter>
<linearGradient id="paint0_linear_616_6055" x1="7.10426" y1="2.4162" x2="7.10426" y2="13.4895" gradientUnits="userSpaceOnUse">
<stop stop-color="#FFC600"/>
<stop offset="1" stop-color="#FFDE69"/>
</linearGradient>
<linearGradient id="paint1_linear_616_6055" x1="7.12768" y1="4.93939" x2="7.12768" y2="10.5461" gradientUnits="userSpaceOnUse">
<stop stop-color="#FFFCDD"/>
<stop offset="1" stop-color="#FFE896"/>
</linearGradient>
</defs>
</svg>
