<svg width="8" height="9" viewBox="0 0 8 9" fill="none" xmlns="http://www.w3.org/2000/svg">
<path d="M7.67501 0.830842C7.62104 0.776765 7.55694 0.733862 7.48637 0.704589C7.4158 0.675317 7.34016 0.660249 7.26376 0.660249C7.18736 0.660249 7.11171 0.675317 7.04114 0.704589C6.97058 0.733862 6.90647 0.776765 6.85251 0.830842L4.00001 3.67751L1.14751 0.825008C1.0935 0.771002 1.02939 0.728162 0.958825 0.698934C0.888263 0.669706 0.812635 0.654663 0.736259 0.654663C0.659882 0.654663 0.584254 0.669706 0.513691 0.698934C0.443129 0.728162 0.379014 0.771002 0.325008 0.825008C0.271002 0.879014 0.228162 0.943129 0.198934 1.01369C0.169706 1.08425 0.154663 1.15988 0.154663 1.23626C0.154663 1.31263 0.169706 1.38826 0.198934 1.45883C0.228162 1.52939 0.271002 1.5935 0.325008 1.64751L3.17751 4.50001L0.325008 7.35251C0.271002 7.40651 0.228162 7.47063 0.198934 7.54119C0.169706 7.61175 0.154663 7.68738 0.154663 7.76376C0.154663 7.84013 0.169706 7.91576 0.198934 7.98632C0.228162 8.05689 0.271002 8.121 0.325008 8.17501C0.379014 8.22901 0.443129 8.27185 0.513691 8.30108C0.584254 8.33031 0.659882 8.34535 0.736259 8.34535C0.812635 8.34535 0.888263 8.33031 0.958825 8.30108C1.02939 8.27185 1.0935 8.22901 1.14751 8.17501L4.00001 5.32251L6.85251 8.17501C6.90651 8.22901 6.97063 8.27185 7.04119 8.30108C7.11175 8.33031 7.18738 8.34535 7.26376 8.34535C7.34013 8.34535 7.41576 8.33031 7.48632 8.30108C7.55689 8.27185 7.621 8.22901 7.67501 8.17501C7.72901 8.121 7.77185 8.05689 7.80108 7.98632C7.83031 7.91576 7.84535 7.84013 7.84535 7.76376C7.84535 7.68738 7.83031 7.61175 7.80108 7.54119C7.77185 7.47063 7.72901 7.40651 7.67501 7.35251L4.82251 4.50001L7.67501 1.64751C7.89667 1.42584 7.89667 1.05251 7.67501 0.830842Z" fill="#9F9F9F"/>
</svg>
