<svg width="4" height="15" viewBox="0 0 4 15" fill="none" xmlns="http://www.w3.org/2000/svg">
<path d="M2.00001 14.7692C1.58752 14.7692 1.23441 14.6223 0.940656 14.3286C0.646906 14.0348 0.500031 13.6817 0.500031 13.2692C0.500031 12.8567 0.646906 12.5036 0.940656 12.2099C1.23441 11.9161 1.58752 11.7693 2.00001 11.7693C2.41249 11.7693 2.76561 11.9161 3.05936 12.2099C3.35311 12.5036 3.49998 12.8567 3.49998 13.2692C3.49998 13.6817 3.35311 14.0348 3.05936 14.3286C2.76561 14.6223 2.41249 14.7692 2.00001 14.7692ZM2.00001 8.99999C1.58752 8.99999 1.23441 8.85311 0.940656 8.55936C0.646906 8.26561 0.500031 7.91249 0.500031 7.50001C0.500031 7.08753 0.646906 6.73441 0.940656 6.44066C1.23441 6.14691 1.58752 6.00004 2.00001 6.00004C2.41249 6.00004 2.76561 6.14691 3.05936 6.44066C3.35311 6.73441 3.49998 7.08753 3.49998 7.50001C3.49998 7.91249 3.35311 8.26561 3.05936 8.55936C2.76561 8.85311 2.41249 8.99999 2.00001 8.99999ZM2.00001 3.23076C1.58752 3.23076 1.23441 3.08389 0.940656 2.79014C0.646906 2.4964 0.500031 2.14329 0.500031 1.73079C0.500031 1.3183 0.646906 0.965186 0.940656 0.671436C1.23441 0.377702 1.58752 0.230835 2.00001 0.230835C2.41249 0.230835 2.76561 0.377702 3.05936 0.671436C3.35311 0.965186 3.49998 1.3183 3.49998 1.73079C3.49998 2.14329 3.35311 2.4964 3.05936 2.79014C2.76561 3.08389 2.41249 3.23076 2.00001 3.23076Z" fill="#303030"/>
</svg>
