<svg width="214" height="214" viewBox="0 0 214 214" fill="none" xmlns="http://www.w3.org/2000/svg">
<path d="M72.9407 83.4411V85.0204H66.8061V83.4411H72.9407ZM67.2981 78.6159V90.1709H65.3062V78.6159H67.2981ZM74.4724 78.6159V90.1709H72.4883V78.6159H74.4724ZM75.9647 85.9727V85.7902C75.9647 85.1711 76.0546 84.5971 76.2345 84.068C76.4144 83.5337 76.6736 83.0707 77.0122 82.6792C77.3561 82.2824 77.7741 81.9755 78.2662 81.7586C78.7635 81.5364 79.3243 81.4253 79.9486 81.4253C80.5782 81.4253 81.139 81.5364 81.6311 81.7586C82.1284 81.9755 82.549 82.2824 82.8929 82.6792C83.2368 83.0707 83.4987 83.5337 83.6786 84.068C83.8585 84.5971 83.9484 85.1711 83.9484 85.7902V85.9727C83.9484 86.5917 83.8585 87.1658 83.6786 87.6948C83.4987 88.2239 83.2368 88.6868 82.8929 89.0837C82.549 89.4752 82.131 89.782 81.639 90.0042C81.147 90.2212 80.5888 90.3296 79.9645 90.3296C79.3349 90.3296 78.7714 90.2212 78.2741 90.0042C77.782 89.782 77.3641 89.4752 77.0202 89.0837C76.6763 88.6868 76.4144 88.2239 76.2345 87.6948C76.0546 87.1658 75.9647 86.5917 75.9647 85.9727ZM77.8773 85.7902V85.9727C77.8773 86.3589 77.917 86.724 77.9963 87.0679C78.0757 87.4118 78.2 87.7134 78.3693 87.9726C78.5386 88.2318 78.7555 88.4355 79.0201 88.5837C79.2846 88.7318 79.5994 88.8059 79.9645 88.8059C80.319 88.8059 80.6258 88.7318 80.8851 88.5837C81.1496 88.4355 81.3665 88.2318 81.5358 87.9726C81.7051 87.7134 81.8295 87.4118 81.9088 87.0679C81.9935 86.724 82.0358 86.3589 82.0358 85.9727V85.7902C82.0358 85.4092 81.9935 85.0495 81.9088 84.7109C81.8295 84.367 81.7025 84.0627 81.5279 83.7982C81.3586 83.5337 81.1417 83.3273 80.8771 83.1792C80.6179 83.0258 80.3084 82.949 79.9486 82.949C79.5888 82.949 79.2767 83.0258 79.0121 83.1792C78.7529 83.3273 78.5386 83.5337 78.3693 83.7982C78.2 84.0627 78.0757 84.367 77.9963 84.7109C77.917 85.0495 77.8773 85.4092 77.8773 85.7902ZM90.0675 88.4488V84.3537C90.0675 84.0469 90.0119 83.7823 89.9008 83.5601C89.7897 83.3379 89.6204 83.166 89.3929 83.0443C89.1707 82.9226 88.8903 82.8617 88.5517 82.8617C88.2395 82.8617 87.9697 82.9146 87.7422 83.0205C87.5147 83.1263 87.3374 83.2691 87.2105 83.449C87.0835 83.6289 87.02 83.8326 87.02 84.0601H85.1153C85.1153 83.7215 85.1973 83.3935 85.3613 83.076C85.5254 82.7586 85.7634 82.4755 86.0756 82.2269C86.3878 81.9782 86.7607 81.7824 87.1946 81.6396C87.6284 81.4967 88.1152 81.4253 88.6548 81.4253C89.3003 81.4253 89.8717 81.5338 90.369 81.7507C90.8717 81.9676 91.2658 82.2956 91.5515 82.7348C91.8425 83.1686 91.988 83.7136 91.988 84.3696V88.1869C91.988 88.5784 92.0145 88.9302 92.0674 89.2424C92.1256 89.5492 92.2076 89.8164 92.3134 90.0439V90.1709H90.3532C90.2632 89.9646 90.1918 89.7027 90.1389 89.3852C90.0913 89.0625 90.0675 88.7503 90.0675 88.4488ZM90.3452 84.9489L90.3611 86.1314H88.9882C88.6337 86.1314 88.3215 86.1658 88.0517 86.2346C87.7819 86.2981 87.557 86.3933 87.3771 86.5203C87.1972 86.6473 87.0623 86.8007 86.9724 86.9806C86.8824 87.1605 86.8375 87.3642 86.8375 87.5917C86.8375 87.8192 86.8904 88.0281 86.9962 88.2186C87.102 88.4038 87.2554 88.5493 87.4565 88.6551C87.6628 88.7609 87.9115 88.8138 88.2025 88.8138C88.594 88.8138 88.9352 88.7345 89.2262 88.5757C89.5225 88.4117 89.7553 88.2133 89.9246 87.9805C90.0939 87.7424 90.1839 87.5176 90.1944 87.306L90.8135 88.1551C90.75 88.372 90.6415 88.6048 90.4881 88.8535C90.3346 89.1022 90.1336 89.3403 89.8849 89.5678C89.6416 89.79 89.3479 89.9725 89.004 90.1153C88.6654 90.2582 88.2739 90.3296 87.8295 90.3296C87.2687 90.3296 86.7687 90.2185 86.3296 89.9963C85.8904 89.7688 85.5465 89.4646 85.2979 89.0837C85.0492 88.6974 84.9249 88.2609 84.9249 87.7742C84.9249 87.3192 85.0095 86.9171 85.1788 86.5679C85.3534 86.2134 85.6074 85.9171 85.9407 85.6791C86.2793 85.441 86.692 85.2611 87.1787 85.1394C87.6655 85.0124 88.221 84.9489 88.8453 84.9489H90.3452ZM88.1707 77.981L89.7183 80.3698H88.1231L86.0042 77.981H88.1707ZM95.5596 83.4173V90.1709H93.647V81.584H95.4485L95.5596 83.4173ZM95.2183 85.56L94.5993 85.5521C94.6046 84.9436 94.6892 84.3855 94.8533 83.8776C95.0226 83.3697 95.2553 82.9332 95.5516 82.5681C95.8532 82.203 96.213 81.9226 96.6309 81.7269C97.0489 81.5258 97.5145 81.4253 98.0277 81.4253C98.4404 81.4253 98.8134 81.4835 99.1467 81.5999C99.4853 81.711 99.7736 81.8935 100.012 82.1475C100.255 82.4014 100.44 82.7321 100.567 83.1395C100.694 83.5416 100.758 84.0363 100.758 84.6236V90.1709H98.8372V84.6156C98.8372 84.2029 98.7763 83.8776 98.6546 83.6395C98.5383 83.3961 98.3663 83.2242 98.1388 83.1236C97.9166 83.0178 97.6388 82.9649 97.3055 82.9649C96.9775 82.9649 96.6838 83.0337 96.4246 83.1713C96.1654 83.3088 95.9458 83.4966 95.7659 83.7347C95.5913 83.9728 95.4564 84.2479 95.3612 84.5601C95.2659 84.8722 95.2183 85.2055 95.2183 85.56ZM110.671 78.6159V90.1709H108.694V78.6159H110.671ZM114.297 78.6159V80.2031H105.099V78.6159H114.297ZM117.194 77.981V90.1709H115.29V77.981H117.194ZM116.861 85.56L116.242 85.5521C116.247 84.9595 116.329 84.4119 116.488 83.9093C116.652 83.4067 116.88 82.9702 117.171 82.5999C117.467 82.2242 117.821 81.9359 118.234 81.7348C118.647 81.5285 119.104 81.4253 119.607 81.4253C120.03 81.4253 120.411 81.4835 120.75 81.5999C121.094 81.7163 121.39 81.9041 121.639 82.1634C121.887 82.4173 122.075 82.7506 122.202 83.1633C122.334 83.5707 122.4 84.068 122.4 84.6553V90.1709H120.48V84.6394C120.48 84.2268 120.419 83.8987 120.297 83.6554C120.181 83.412 120.009 83.2374 119.782 83.1316C119.554 83.0205 119.276 82.9649 118.948 82.9649C118.604 82.9649 118.3 83.0337 118.036 83.1713C117.776 83.3088 117.559 83.4966 117.385 83.7347C117.21 83.9728 117.078 84.2479 116.988 84.5601C116.903 84.8722 116.861 85.2055 116.861 85.56ZM128.853 88.4488V84.3537C128.853 84.0469 128.797 83.7823 128.686 83.5601C128.575 83.3379 128.406 83.166 128.178 83.0443C127.956 82.9226 127.676 82.8617 127.337 82.8617C127.025 82.8617 126.755 82.9146 126.528 83.0205C126.3 83.1263 126.123 83.2691 125.996 83.449C125.869 83.6289 125.805 83.8326 125.805 84.0601H123.901C123.901 83.7215 123.983 83.3935 124.147 83.076C124.311 82.7586 124.549 82.4755 124.861 82.2269C125.173 81.9782 125.546 81.7824 125.98 81.6396C126.414 81.4967 126.901 81.4253 127.44 81.4253C128.086 81.4253 128.657 81.5338 129.154 81.7507C129.657 81.9676 130.051 82.2956 130.337 82.7348C130.628 83.1686 130.773 83.7136 130.773 84.3696V88.1869C130.773 88.5784 130.8 88.9302 130.853 89.2424C130.911 89.5492 130.993 89.8164 131.099 90.0439V90.1709H129.139C129.049 89.9646 128.977 89.7027 128.924 89.3852C128.877 89.0625 128.853 88.7503 128.853 88.4488ZM129.131 84.9489L129.146 86.1314H127.774C127.419 86.1314 127.107 86.1658 126.837 86.2346C126.567 86.2981 126.342 86.3933 126.162 86.5203C125.983 86.6473 125.848 86.8007 125.758 86.9806C125.668 87.1605 125.623 87.3642 125.623 87.5917C125.623 87.8192 125.676 88.0281 125.782 88.2186C125.887 88.4038 126.041 88.5493 126.242 88.6551C126.448 88.7609 126.697 88.8138 126.988 88.8138C127.379 88.8138 127.721 88.7345 128.012 88.5757C128.308 88.4117 128.541 88.2133 128.71 87.9805C128.879 87.7424 128.969 87.5176 128.98 87.306L129.599 88.1551C129.535 88.372 129.427 88.6048 129.273 88.8535C129.12 89.1022 128.919 89.3403 128.67 89.5678C128.427 89.79 128.133 89.9725 127.789 90.1153C127.451 90.2582 127.059 90.3296 126.615 90.3296C126.054 90.3296 125.554 90.2185 125.115 89.9963C124.676 89.7688 124.332 89.4646 124.083 89.0837C123.835 88.6974 123.71 88.2609 123.71 87.7742C123.71 87.3192 123.795 86.9171 123.964 86.5679C124.139 86.2134 124.393 85.9171 124.726 85.6791C125.065 85.441 125.477 85.2611 125.964 85.1394C126.451 85.0124 127.006 84.9489 127.631 84.9489H129.131ZM126.956 77.981L128.504 80.3698H126.908L124.79 77.981H126.956ZM134.345 83.4173V90.1709H132.432V81.584H134.234L134.345 83.4173ZM134.004 85.56L133.385 85.5521C133.39 84.9436 133.475 84.3855 133.639 83.8776C133.808 83.3697 134.041 82.9332 134.337 82.5681C134.639 82.203 134.998 81.9226 135.416 81.7269C135.834 81.5258 136.3 81.4253 136.813 81.4253C137.226 81.4253 137.599 81.4835 137.932 81.5999C138.271 81.711 138.559 81.8935 138.797 82.1475C139.04 82.4014 139.226 82.7321 139.353 83.1395C139.48 83.5416 139.543 84.0363 139.543 84.6236V90.1709H137.623V84.6156C137.623 84.2029 137.562 83.8776 137.44 83.6395C137.324 83.3961 137.152 83.2242 136.924 83.1236C136.702 83.0178 136.424 82.9649 136.091 82.9649C135.763 82.9649 135.469 83.0337 135.21 83.1713C134.951 83.3088 134.731 83.4966 134.551 83.7347C134.377 83.9728 134.242 84.2479 134.147 84.5601C134.051 84.8722 134.004 85.2055 134.004 85.56ZM143.059 77.981V90.1709H141.154V77.981H143.059ZM142.726 85.56L142.107 85.5521C142.112 84.9595 142.194 84.4119 142.353 83.9093C142.517 83.4067 142.744 82.9702 143.035 82.5999C143.332 82.2242 143.686 81.9359 144.099 81.7348C144.511 81.5285 144.969 81.4253 145.472 81.4253C145.895 81.4253 146.276 81.4835 146.614 81.5999C146.958 81.7163 147.255 81.9041 147.503 82.1634C147.752 82.4173 147.94 82.7506 148.067 83.1633C148.199 83.5707 148.265 84.068 148.265 84.6553V90.1709H146.345V84.6394C146.345 84.2268 146.284 83.8987 146.162 83.6554C146.046 83.412 145.874 83.2374 145.646 83.1316C145.419 83.0205 145.141 82.9649 144.813 82.9649C144.469 82.9649 144.165 83.0337 143.9 83.1713C143.641 83.3088 143.424 83.4966 143.25 83.7347C143.075 83.9728 142.943 84.2479 142.853 84.5601C142.768 84.8722 142.726 85.2055 142.726 85.56Z" fill="white"/>
<path d="M23.2876 84.6518C23.2876 131.073 60.9174 168.703 107.339 168.703C153.761 168.703 191.391 131.073 191.391 84.6518C191.391 38.2302 153.761 0.600342 107.339 0.600342C60.9174 0.600342 23.2876 38.2302 23.2876 84.6518Z" fill="#8DE301"/>
<path d="M97.9914 117.683C96.669 119.005 94.5251 119.005 93.2027 117.683L62.3283 86.8085C61.006 85.4861 61.006 83.3422 62.3283 82.0198L69.4246 74.9236C70.7469 73.6012 72.8909 73.6012 74.2132 74.9236L95.5971 96.3074L140.743 51.1534C142.065 49.8312 144.209 49.8307 145.531 51.1524L152.634 58.2501C153.957 59.5723 153.957 61.7169 152.635 63.0396L97.9914 117.683Z" fill="white"/>
<path d="M70.0195 196.116C70.0195 195.719 69.9578 195.367 69.8343 195.058C69.7197 194.749 69.5125 194.467 69.2127 194.211C68.9128 193.956 68.4896 193.709 67.9429 193.471C67.405 193.224 66.7172 192.973 65.8795 192.717C64.9624 192.435 64.1159 192.122 63.3399 191.778C62.5728 191.425 61.9026 191.019 61.3294 190.561C60.7563 190.093 60.311 189.56 59.9935 188.96C59.6761 188.352 59.5174 187.651 59.5174 186.857C59.5174 186.073 59.6805 185.358 60.0068 184.715C60.3418 184.071 60.8136 183.515 61.422 183.048C62.0393 182.572 62.7668 182.206 63.6045 181.95C64.4422 181.686 65.368 181.553 66.3821 181.553C67.8106 181.553 69.0407 181.818 70.0724 182.347C71.1129 182.876 71.9109 183.586 72.4665 184.476C73.0308 185.367 73.313 186.35 73.313 187.426H70.0195C70.0195 186.791 69.8828 186.231 69.6095 185.746C69.3449 185.252 68.9393 184.864 68.3926 184.582C67.8547 184.3 67.1713 184.159 66.3424 184.159C65.5576 184.159 64.9051 184.278 64.3849 184.516C63.8646 184.754 63.4766 185.076 63.2209 185.482C62.9652 185.887 62.8373 186.346 62.8373 186.857C62.8373 187.219 62.9211 187.55 63.0886 187.849C63.2562 188.14 63.5119 188.414 63.8558 188.669C64.1997 188.916 64.6318 189.15 65.152 189.37C65.6723 189.591 66.2851 189.802 66.9905 190.005C68.0575 190.323 68.9878 190.675 69.7814 191.063C70.575 191.443 71.2364 191.875 71.7654 192.36C72.2945 192.845 72.6913 193.396 72.9558 194.013C73.2204 194.621 73.3527 195.314 73.3527 196.09C73.3527 196.901 73.1895 197.633 72.8633 198.285C72.537 198.929 72.0696 199.48 71.4612 199.939C70.8616 200.388 70.1385 200.737 69.292 200.984C68.4543 201.222 67.5196 201.341 66.4879 201.341C65.562 201.341 64.6494 201.217 63.75 200.97C62.8594 200.723 62.0481 200.349 61.3162 199.846C60.5843 199.335 60.0024 198.7 59.5703 197.941C59.1382 197.174 58.9222 196.279 58.9222 195.256H62.2421C62.2421 195.882 62.3479 196.416 62.5595 196.857C62.78 197.298 63.0842 197.659 63.4722 197.941C63.8602 198.215 64.3099 198.418 64.8213 198.55C65.3416 198.682 65.8971 198.748 66.4879 198.748C67.2639 198.748 67.912 198.638 68.4323 198.418C68.9613 198.197 69.3581 197.889 69.6227 197.492C69.8872 197.095 70.0195 196.636 70.0195 196.116ZM84.0405 197.703V186.765H87.2414V201.076H84.2257L84.0405 197.703ZM84.4902 194.727L85.5616 194.701C85.5616 195.662 85.4557 196.548 85.2441 197.359C85.0325 198.162 84.7062 198.863 84.2653 199.462C83.8244 200.053 83.2601 200.516 82.5723 200.851C81.8845 201.178 81.06 201.341 80.0989 201.341C79.4023 201.341 78.763 201.239 78.181 201.036C77.599 200.834 77.0964 200.521 76.6731 200.097C76.2587 199.674 75.9368 199.123 75.7076 198.444C75.4783 197.765 75.3637 196.954 75.3637 196.01V186.765H78.5513V196.037C78.5513 196.557 78.6131 196.993 78.7365 197.346C78.86 197.69 79.0275 197.968 79.2391 198.179C79.4508 198.391 79.6977 198.541 79.9798 198.629C80.262 198.717 80.5618 198.761 80.8793 198.761C81.7875 198.761 82.5018 198.585 83.022 198.232C83.5511 197.871 83.9258 197.386 84.1463 196.777C84.3756 196.169 84.4902 195.486 84.4902 194.727ZM95.8129 198.801C96.3332 198.801 96.8005 198.7 97.2149 198.497C97.6382 198.285 97.9777 197.994 98.2334 197.624C98.4979 197.254 98.6434 196.826 98.6699 196.341H101.672C101.655 197.267 101.381 198.109 100.852 198.867C100.323 199.626 99.6222 200.23 98.7493 200.679C97.8763 201.12 96.9107 201.341 95.8526 201.341C94.7592 201.341 93.8068 201.156 92.9956 200.785C92.1843 200.406 91.5098 199.886 90.9719 199.224C90.434 198.563 90.0284 197.8 89.755 196.936C89.4905 196.072 89.3582 195.146 89.3582 194.159V193.696C89.3582 192.708 89.4905 191.782 89.755 190.918C90.0284 190.045 90.434 189.278 90.9719 188.616C91.5098 187.955 92.1843 187.439 92.9956 187.069C93.8068 186.69 94.7548 186.5 95.8394 186.5C96.9857 186.5 97.9909 186.729 98.8551 187.188C99.7192 187.638 100.398 188.268 100.892 189.079C101.395 189.882 101.655 190.817 101.672 191.884H98.6699C98.6434 191.354 98.5112 190.878 98.2731 190.455C98.0438 190.023 97.7176 189.679 97.2943 189.423C96.8799 189.168 96.3817 189.04 95.7997 189.04C95.156 189.04 94.6225 189.172 94.1992 189.437C93.776 189.692 93.4453 190.045 93.2072 190.495C92.9691 190.936 92.7972 191.434 92.6914 191.989C92.5944 192.536 92.5459 193.105 92.5459 193.696V194.159C92.5459 194.749 92.5944 195.322 92.6914 195.878C92.7884 196.434 92.9559 196.932 93.194 197.373C93.4409 197.805 93.776 198.153 94.1992 198.418C94.6225 198.673 95.1604 198.801 95.8129 198.801ZM109.424 198.801C109.944 198.801 110.411 198.7 110.826 198.497C111.249 198.285 111.589 197.994 111.844 197.624C112.109 197.254 112.254 196.826 112.281 196.341H115.283C115.266 197.267 114.992 198.109 114.463 198.867C113.934 199.626 113.233 200.23 112.36 200.679C111.487 201.12 110.522 201.341 109.464 201.341C108.37 201.341 107.418 201.156 106.607 200.785C105.795 200.406 105.121 199.886 104.583 199.224C104.045 198.563 103.639 197.8 103.366 196.936C103.101 196.072 102.969 195.146 102.969 194.159V193.696C102.969 192.708 103.101 191.782 103.366 190.918C103.639 190.045 104.045 189.278 104.583 188.616C105.121 187.955 105.795 187.439 106.607 187.069C107.418 186.69 108.366 186.5 109.45 186.5C110.597 186.5 111.602 186.729 112.466 187.188C113.33 187.638 114.009 188.268 114.503 189.079C115.006 189.882 115.266 190.817 115.283 191.884H112.281C112.254 191.354 112.122 190.878 111.884 190.455C111.655 190.023 111.329 189.679 110.905 189.423C110.491 189.168 109.993 189.04 109.411 189.04C108.767 189.04 108.233 189.172 107.81 189.437C107.387 189.692 107.056 190.045 106.818 190.495C106.58 190.936 106.408 191.434 106.302 191.989C106.205 192.536 106.157 193.105 106.157 193.696V194.159C106.157 194.749 106.205 195.322 106.302 195.878C106.399 196.434 106.567 196.932 106.805 197.373C107.052 197.805 107.387 198.153 107.81 198.418C108.233 198.673 108.771 198.801 109.424 198.801ZM123.498 201.341C122.44 201.341 121.483 201.169 120.628 200.825C119.781 200.472 119.058 199.983 118.458 199.357C117.868 198.731 117.413 197.994 117.096 197.148C116.779 196.301 116.62 195.389 116.62 194.41V193.881C116.62 192.761 116.783 191.747 117.109 190.839C117.435 189.93 117.89 189.154 118.472 188.511C119.054 187.858 119.741 187.36 120.535 187.016C121.329 186.672 122.188 186.5 123.114 186.5C124.137 186.5 125.032 186.672 125.799 187.016C126.566 187.36 127.201 187.845 127.704 188.471C128.215 189.088 128.594 189.825 128.841 190.68C129.097 191.535 129.225 192.479 129.225 193.51V194.873H118.167V192.585H126.077V192.333C126.059 191.76 125.945 191.222 125.733 190.72C125.53 190.217 125.217 189.811 124.794 189.503C124.371 189.194 123.806 189.04 123.101 189.04C122.572 189.04 122.1 189.154 121.686 189.384C121.28 189.604 120.941 189.926 120.667 190.349C120.394 190.772 120.182 191.284 120.032 191.884C119.891 192.474 119.821 193.14 119.821 193.881V194.41C119.821 195.036 119.904 195.618 120.072 196.156C120.248 196.685 120.504 197.148 120.839 197.545C121.174 197.941 121.58 198.254 122.056 198.484C122.532 198.704 123.074 198.814 123.683 198.814C124.45 198.814 125.133 198.66 125.733 198.351C126.333 198.043 126.853 197.606 127.294 197.042L128.974 198.669C128.665 199.119 128.264 199.551 127.77 199.965C127.276 200.371 126.672 200.701 125.958 200.957C125.253 201.213 124.432 201.341 123.498 201.341ZM139.199 197.201C139.199 196.883 139.119 196.597 138.96 196.341C138.802 196.076 138.498 195.838 138.048 195.627C137.607 195.415 136.954 195.221 136.09 195.045C135.332 194.877 134.635 194.679 134 194.45C133.374 194.211 132.836 193.925 132.387 193.59C131.937 193.255 131.589 192.858 131.342 192.399C131.095 191.941 130.971 191.412 130.971 190.812C130.971 190.23 131.099 189.679 131.355 189.159C131.611 188.639 131.977 188.18 132.453 187.783C132.929 187.386 133.507 187.073 134.186 186.844C134.873 186.615 135.641 186.5 136.487 186.5C137.686 186.5 138.714 186.703 139.569 187.109C140.433 187.505 141.094 188.048 141.553 188.736C142.011 189.415 142.241 190.182 142.241 191.037H139.053C139.053 190.658 138.956 190.305 138.762 189.979C138.577 189.644 138.295 189.375 137.916 189.172C137.536 188.96 137.06 188.855 136.487 188.855C135.94 188.855 135.486 188.943 135.125 189.119C134.772 189.287 134.507 189.507 134.331 189.78C134.164 190.054 134.08 190.354 134.08 190.68C134.08 190.918 134.124 191.134 134.212 191.328C134.309 191.513 134.468 191.685 134.688 191.844C134.909 191.994 135.208 192.135 135.588 192.267C135.976 192.399 136.461 192.527 137.043 192.651C138.136 192.88 139.075 193.175 139.86 193.537C140.654 193.89 141.262 194.348 141.685 194.912C142.108 195.468 142.32 196.173 142.32 197.029C142.32 197.664 142.183 198.246 141.91 198.775C141.646 199.295 141.258 199.749 140.746 200.137C140.235 200.516 139.622 200.812 138.908 201.023C138.202 201.235 137.409 201.341 136.527 201.341C135.23 201.341 134.133 201.111 133.233 200.653C132.334 200.186 131.65 199.59 131.183 198.867C130.725 198.135 130.495 197.377 130.495 196.592H133.577C133.612 197.183 133.776 197.655 134.067 198.008C134.366 198.351 134.737 198.603 135.178 198.761C135.627 198.911 136.09 198.986 136.566 198.986C137.14 198.986 137.62 198.911 138.008 198.761C138.396 198.603 138.692 198.391 138.894 198.127C139.097 197.853 139.199 197.545 139.199 197.201ZM152.598 197.201C152.598 196.883 152.519 196.597 152.36 196.341C152.201 196.076 151.897 195.838 151.447 195.627C151.006 195.415 150.354 195.221 149.49 195.045C148.731 194.877 148.035 194.679 147.4 194.45C146.774 194.211 146.236 193.925 145.786 193.59C145.336 193.255 144.988 192.858 144.741 192.399C144.494 191.941 144.371 191.412 144.371 190.812C144.371 190.23 144.499 189.679 144.754 189.159C145.01 188.639 145.376 188.18 145.852 187.783C146.328 187.386 146.906 187.073 147.585 186.844C148.273 186.615 149.04 186.5 149.886 186.5C151.086 186.5 152.113 186.703 152.968 187.109C153.832 187.505 154.494 188.048 154.952 188.736C155.411 189.415 155.64 190.182 155.64 191.037H152.452C152.452 190.658 152.355 190.305 152.161 189.979C151.976 189.644 151.694 189.375 151.315 189.172C150.936 188.96 150.46 188.855 149.886 188.855C149.34 188.855 148.886 188.943 148.524 189.119C148.171 189.287 147.907 189.507 147.73 189.78C147.563 190.054 147.479 190.354 147.479 190.68C147.479 190.918 147.523 191.134 147.611 191.328C147.708 191.513 147.867 191.685 148.088 191.844C148.308 191.994 148.608 192.135 148.987 192.267C149.375 192.399 149.86 192.527 150.442 192.651C151.535 192.88 152.474 193.175 153.259 193.537C154.053 193.89 154.661 194.348 155.085 194.912C155.508 195.468 155.719 196.173 155.719 197.029C155.719 197.664 155.583 198.246 155.309 198.775C155.045 199.295 154.657 199.749 154.145 200.137C153.634 200.516 153.021 200.812 152.307 201.023C151.601 201.235 150.808 201.341 149.926 201.341C148.63 201.341 147.532 201.111 146.633 200.653C145.733 200.186 145.05 199.59 144.582 198.867C144.124 198.135 143.895 197.377 143.895 196.592H146.976C147.012 197.183 147.175 197.655 147.466 198.008C147.766 198.351 148.136 198.603 148.577 198.761C149.027 198.911 149.49 198.986 149.966 198.986C150.539 198.986 151.019 198.911 151.407 198.761C151.795 198.603 152.091 198.391 152.294 198.127C152.496 197.853 152.598 197.545 152.598 197.201Z" fill="white"/>
<circle opacity="0.5" cx="107.345" cy="107.039" r="13.5443" fill="#F7A300"/>
<circle opacity="0.65" cx="173.829" cy="33.5957" r="20.3164" transform="rotate(-90.7693 173.829 33.5957)" fill="#C60707"/>
<circle opacity="0.85" cx="35.5943" cy="184.446" r="16.2532" transform="rotate(-90.7693 35.5943 184.446)" fill="#8DE301"/>
<circle opacity="0.65" cx="197.403" cy="135.445" r="16.2532" fill="#FFF50E"/>
<circle opacity="0.9" cx="20.6599" cy="82.6319" r="20.3164" fill="#0080F7"/>
</svg>
