<svg width="14" height="15" viewBox="0 0 14 15" fill="none" xmlns="http://www.w3.org/2000/svg">
<circle cx="6.85474" cy="7.5" r="6.85474" fill="url(#paint0_linear_870_2166)"/>
<circle cx="6.85489" cy="7.49991" r="5.35074" fill="#705100"/>
<mask id="mask0_870_2166" style="mask-type:alpha" maskUnits="userSpaceOnUse" x="1" y="2" width="12" height="12">
<circle cx="7.17863" cy="8.11002" r="5.3632" fill="#C28B37"/>
</mask>
<g mask="url(#mask0_870_2166)">
<circle cx="6.8549" cy="7.49992" r="5.3632" fill="#E3A504"/>
</g>
<circle cx="6.92722" cy="7.53854" r="4.40598" fill="#C18222"/>
<path d="M6.92721 3.99219L7.96602 6.10562L10.0436 6.3698L8.617 7.99715L9.00483 10.3325L6.92721 9.27578L4.8496 10.3325L5.24088 7.99715L3.81079 6.3698L5.88841 6.10562L6.92721 3.99219Z" fill="url(#paint1_linear_870_2166)"/>
<path d="M6.9832 3.96467L6.92721 3.85075L6.87122 3.96467L5.84723 6.04797L3.80292 6.30791L3.68637 6.32273L3.76393 6.41099L5.17445 8.01607L4.78807 10.3222L4.76762 10.4442L4.87788 10.3881L6.92721 9.34577L8.97654 10.3881L9.0866 10.4441L9.06637 10.3223L8.68339 8.01606L10.0905 6.41093L10.1679 6.32271L10.0515 6.30791L8.0072 6.04797L6.9832 3.96467Z" stroke="#A36D1D" stroke-opacity="0.2" stroke-width="0.12478"/>
<defs>
<linearGradient id="paint0_linear_870_2166" x1="6.85474" y1="0.645264" x2="6.85474" y2="14.3547" gradientUnits="userSpaceOnUse">
<stop stop-color="#FFE176"/>
<stop offset="1" stop-color="#FFD12D"/>
</linearGradient>
<linearGradient id="paint1_linear_870_2166" x1="6.92721" y1="3.99219" x2="6.92721" y2="10.3325" gradientUnits="userSpaceOnUse">
<stop stop-color="white"/>
<stop offset="0.0001" stop-color="#FFFFFD"/>
<stop offset="1" stop-color="#FFE86D"/>
</linearGradient>
</defs>
</svg>
