<svg width="120" height="119" viewBox="0 0 120 119" fill="none" xmlns="http://www.w3.org/2000/svg">
<rect x="0.886364" y="0.386364" width="118.227" height="118.227" rx="2.70455" stroke="#ABA7AF" stroke-width="0.772727" stroke-dasharray="3.86 3.86"/>
<path fill-rule="evenodd" clip-rule="evenodd" d="M46.75 61.8335C47.5324 61.8335 48.1666 62.4678 48.1666 63.2502V68.9168C48.1666 69.2926 48.3159 69.6529 48.5816 69.9186C48.8473 70.1842 49.2076 70.3335 49.5833 70.3335H69.4166C69.7924 70.3335 70.1527 70.1842 70.4184 69.9186C70.6841 69.6529 70.8333 69.2926 70.8333 68.9168V63.2502C70.8333 62.4678 71.4676 61.8335 72.25 61.8335C73.0324 61.8335 73.6666 62.4678 73.6666 63.2502V68.9168C73.6666 70.044 73.2189 71.125 72.4218 71.922C71.6248 72.7191 70.5438 73.1668 69.4166 73.1668H49.5833C48.4561 73.1668 47.3751 72.7191 46.5781 71.922C45.7811 71.125 45.3333 70.044 45.3333 68.9168V63.2502C45.3333 62.4678 45.9676 61.8335 46.75 61.8335Z" fill="#333333"/>
<path fill-rule="evenodd" clip-rule="evenodd" d="M58.4982 45.2484C59.0515 44.6952 59.9485 44.6952 60.5017 45.2484L67.585 52.3318C68.1383 52.885 68.1383 53.782 67.585 54.3352C67.0318 54.8885 66.1348 54.8885 65.5816 54.3352L59.5 48.2536L53.4184 54.3352C52.8651 54.8885 51.9681 54.8885 51.4149 54.3352C50.8617 53.782 50.8617 52.885 51.4149 52.3318L58.4982 45.2484Z" fill="#333333"/>
<path fill-rule="evenodd" clip-rule="evenodd" d="M59.5 44.8335C60.2824 44.8335 60.9166 45.4678 60.9166 46.2502V63.2502C60.9166 64.0326 60.2824 64.6668 59.5 64.6668C58.7176 64.6668 58.0833 64.0326 58.0833 63.2502V46.2502C58.0833 45.4678 58.7176 44.8335 59.5 44.8335Z" fill="#333333"/>
</svg>
