<svg width="100" height="100" viewBox="0 0 100 100" fill="none" xmlns="http://www.w3.org/2000/svg">
<rect x="0.5" y="0.5" width="99" height="99" rx="3.5" stroke="#ABA7AF" stroke-dasharray="5 5"/>
<g clip-path="url(#clip0_833_10879)">
<path d="M35.3333 33.5H64.6667C65.1529 33.5 65.6192 33.6932 65.963 34.037C66.3068 34.3808 66.5 34.8471 66.5 35.3333V64.6667C66.5 65.1529 66.3068 65.6192 65.963 65.963C65.6192 66.3068 65.1529 66.5 64.6667 66.5H35.3333C34.8471 66.5 34.3808 66.3068 34.037 65.963C33.6932 65.6192 33.5 65.1529 33.5 64.6667V35.3333C33.5 34.8471 33.6932 34.3808 34.037 34.037C34.3808 33.6932 34.8471 33.5 35.3333 33.5ZM48.1667 48.1667H40.8333V51.8333H48.1667V59.1667H51.8333V51.8333H59.1667V48.1667H51.8333V40.8333H48.1667V48.1667Z" fill="#00476D"/>
</g>
<defs>
<clipPath id="clip0_833_10879">
<rect width="44" height="44" fill="white" transform="translate(28 28)"/>
</clipPath>
</defs>
</svg>
