<svg width="24" height="24" viewBox="0 0 24 24" fill="none" xmlns="http://www.w3.org/2000/svg">
<path fill-rule="evenodd" clip-rule="evenodd" d="M12.0002 13.8002C13.2732 13.8002 14.4941 13.2945 15.3943 12.3943C16.2945 11.4941 16.8002 10.2732 16.8002 9.0002C16.8002 7.72716 16.2945 6.50626 15.3943 5.60608C14.4941 4.70591 13.2732 4.2002 12.0002 4.2002C10.7272 4.2002 9.50626 4.70591 8.60608 5.60608C7.70591 6.50626 7.2002 7.72716 7.2002 9.0002C7.2002 10.2732 7.70591 11.4941 8.60608 12.3943C9.50626 13.2945 10.7272 13.8002 12.0002 13.8002ZM12.0002 12.6002C12.473 12.6002 12.9411 12.5071 13.3779 12.3262C13.8146 12.1452 14.2115 11.8801 14.5458 11.5458C14.8801 11.2115 15.1452 10.8146 15.3262 10.3779C15.5071 9.94108 15.6002 9.47295 15.6002 9.0002C15.6002 8.52744 15.5071 8.05931 15.3262 7.62253C15.1452 7.18576 14.8801 6.7889 14.5458 6.45461C14.2115 6.12032 13.8146 5.85515 13.3779 5.67423C12.9411 5.49331 12.473 5.4002 12.0002 5.4002C11.0454 5.4002 10.1297 5.77948 9.45461 6.45461C8.77948 7.12974 8.4002 8.04542 8.4002 9.0002C8.4002 9.95498 8.77948 10.8706 9.45461 11.5458C10.1297 12.2209 11.0454 12.6002 12.0002 12.6002Z" fill="#191919"/>
<path fill-rule="evenodd" clip-rule="evenodd" d="M24 12C24 18.6276 18.6276 24 12 24C5.3724 24 0 18.6276 0 12C0 5.3724 5.3724 0 12 0C18.6276 0 24 5.3724 24 12ZM17.778 21.126C16.0508 22.223 14.0461 22.8038 12 22.8C9.90501 22.8038 7.85464 22.1948 6.1014 21.048C5.9574 20.868 5.8114 20.682 5.6634 20.49C5.49174 20.2651 5.39915 19.9899 5.4 19.707C5.4 19.0608 5.8644 18.519 6.4854 18.4284C10.5924 17.8284 13.4202 17.88 17.5326 18.4494C17.8303 18.4929 18.1022 18.6425 18.2983 18.8706C18.4944 19.0987 18.6016 19.39 18.6 19.6908C18.6 19.9788 18.501 20.2584 18.3222 20.4768C18.1378 20.7012 17.9564 20.9176 17.778 21.126ZM19.791 19.4796C19.695 18.3564 18.8424 17.4192 17.697 17.2608C13.4874 16.6782 10.545 16.6224 6.312 17.241C5.16 17.409 4.311 18.3546 4.2102 19.4808C2.2754 17.4714 1.19619 14.7894 1.2 12C1.2 6.0354 6.0354 1.2 12 1.2C17.9646 1.2 22.8 6.0354 22.8 12C22.8038 14.7889 21.7251 17.4703 19.791 19.4796Z" fill="#191919"/>
</svg>
