<svg width="25" height="33" viewBox="0 0 25 33" fill="none" xmlns="http://www.w3.org/2000/svg">
<g filter="url(#filter0_d_847_749)">
<path d="M9.06909 18.2876L11.981 19.9688L6.06786 30.2106L4.37067 26.4255L9.06909 18.2876Z" fill="#418ED6"/>
<path d="M9.06909 18.2876L6.1572 16.6064L0.244076 26.8482L4.37067 26.4255L9.06909 18.2876Z" fill="#2B63A6"/>
<path d="M13.2234 18.2876L10.3115 19.9688L16.2246 30.2106L17.9218 26.4255L13.2234 18.2876Z" fill="#2B63A6"/>
<path d="M13.2234 18.2876L16.1353 16.6064L22.0484 26.8482L17.9218 26.4255L13.2234 18.2876Z" fill="#418ED6"/>
<circle cx="11.1415" cy="11.2356" r="10.1134" fill="#E3E3E3" stroke="#404040" stroke-width="0.176641"/>
<circle cx="11.1415" cy="11.2356" r="7.82548" fill="#595959"/>
<mask id="mask0_847_749" style="mask-type:alpha" maskUnits="userSpaceOnUse" x="3" y="4" width="17" height="16">
<circle cx="11.5592" cy="12.0711" r="7.84369" fill="#C28B37"/>
</mask>
<g mask="url(#mask0_847_749)">
<circle cx="11.1415" cy="11.2357" r="7.84369" fill="url(#paint0_linear_847_749)"/>
</g>
<path d="M11.1838 5.77893L12.8758 9.16292L16.2598 9.58592L13.9361 12.1916L14.5678 15.9309L11.1838 14.2389L7.79984 15.9309L8.43716 12.1916L6.10785 9.58592L9.49184 9.16292L11.1838 5.77893Z" fill="url(#paint1_linear_847_749)"/>
</g>
<defs>
<filter id="filter0_d_847_749" x="0.105682" y="0.895538" width="24.0187" height="31.3911" filterUnits="userSpaceOnUse" color-interpolation-filters="sRGB">
<feFlood flood-opacity="0" result="BackgroundImageFix"/>
<feColorMatrix in="SourceAlpha" type="matrix" values="0 0 0 0 0 0 0 0 0 0 0 0 0 0 0 0 0 0 127 0" result="hardAlpha"/>
<feOffset dx="0.968786" dy="0.968786"/>
<feGaussianBlur stdDeviation="0.553592"/>
<feComposite in2="hardAlpha" operator="out"/>
<feColorMatrix type="matrix" values="0 0 0 0 0 0 0 0 0 0 0 0 0 0 0 0 0 0 0.3 0"/>
<feBlend mode="normal" in2="BackgroundImageFix" result="effect1_dropShadow_847_749"/>
<feBlend mode="normal" in="SourceGraphic" in2="effect1_dropShadow_847_749" result="shape"/>
</filter>
<linearGradient id="paint0_linear_847_749" x1="11.1415" y1="3.39197" x2="11.1415" y2="19.0794" gradientUnits="userSpaceOnUse">
<stop stop-color="#9CA1A3"/>
<stop offset="1" stop-color="#9CA1A3" stop-opacity="0"/>
</linearGradient>
<linearGradient id="paint1_linear_847_749" x1="11.1838" y1="5.77893" x2="11.1838" y2="15.9309" gradientUnits="userSpaceOnUse">
<stop stop-color="#F1F5F5"/>
<stop offset="0.0001" stop-color="white"/>
<stop offset="1" stop-color="#F1F5F5"/>
</linearGradient>
</defs>
</svg>
