<svg width="30" height="31" viewBox="0 0 30 31" fill="none" xmlns="http://www.w3.org/2000/svg">
<path fill-rule="evenodd" clip-rule="evenodd" d="M15 30.125C16.9206 30.125 18.8224 29.7467 20.5967 29.0117C22.3711 28.2768 23.9834 27.1995 25.3414 25.8414C26.6995 24.4834 27.7768 22.8711 28.5117 21.0967C29.2467 19.3224 29.625 17.4206 29.625 15.5C29.625 13.5794 29.2467 11.6776 28.5117 9.90325C27.7768 8.12887 26.6995 6.51662 25.3414 5.15856C23.9834 3.80051 22.3711 2.72324 20.5967 1.98826C18.8224 1.25329 16.9206 0.875 15 0.875C11.1212 0.875 7.40128 2.41584 4.65856 5.15856C1.91584 7.90128 0.375 11.6212 0.375 15.5C0.375 19.3788 1.91584 23.0987 4.65856 25.8414C7.40128 28.5842 11.1212 30.125 15 30.125ZM14.623 21.415L22.748 11.665L20.252 9.585L13.2645 17.9684L9.64887 14.3511L7.35113 16.6489L12.2261 21.5239L13.4839 22.7816L14.623 21.415Z" fill="#9F9F9F"/>
</svg>
