<svg width="21" height="21" viewBox="0 0 21 21" fill="none" xmlns="http://www.w3.org/2000/svg">
<path d="M15.0699 11.1542L16.4767 13.8794L19.4858 14.3084L17.2779 16.3063L18.2241 19.3551L15.0699 17.5938L11.9157 19.3551L12.862 16.3063L10.6541 14.3084L13.7452 13.8794L15.0699 11.1542Z" fill="#FCFCFC"/>
<path d="M16.3317 3.58411H14.4391V2.95327C14.4381 2.61896 14.3049 2.29863 14.0685 2.06223C13.8321 1.82584 13.5118 1.69259 13.1775 1.69159H8.13073C7.79642 1.69259 7.47609 1.82584 7.23969 2.06223C7.0033 2.29863 6.87005 2.61896 6.86905 2.95327V3.58411H4.97653C4.64221 3.58511 4.32188 3.71836 4.08548 3.95475C3.84909 4.19115 3.71584 4.51148 3.71484 4.8458V18.0935C3.71584 18.4278 3.84909 18.7481 4.08548 18.9845C4.32188 19.2209 4.64221 19.3541 4.97653 19.3551H9.39241V18.0935H4.97653V4.8458H6.86905V6.73832H14.4391V4.8458H16.3317V9.26168H17.5933V4.8458C17.5924 4.51148 17.4591 4.19115 17.2227 3.95475C16.9863 3.71836 16.666 3.58511 16.3317 3.58411ZM13.1775 5.47664H8.13073V2.95327H13.1775V5.47664Z" fill="#FCFCFC"/>
</svg>
