<svg width="21" height="21" viewBox="0 0 21 21" fill="none" xmlns="http://www.w3.org/2000/svg">
<path d="M17.2299 6.16638L12.385 2.77666C11.0645 1.85143 9.03736 1.90189 7.76726 2.88601L3.55325 6.17479C2.71212 6.83087 2.04764 8.17666 2.04764 9.23647V15.0402C2.04764 17.1851 3.78876 18.9346 5.93362 18.9346H15.0009C17.1458 18.9346 18.8869 17.1935 18.8869 15.0486V9.34582C18.8869 8.21031 18.1551 6.81404 17.2299 6.16638ZM11.0981 15.5701C11.0981 15.915 10.8121 16.201 10.4673 16.201C10.1224 16.201 9.83642 15.915 9.83642 15.5701V13.0468C9.83642 12.7019 10.1224 12.4159 10.4673 12.4159C10.8121 12.4159 11.0981 12.7019 11.0981 13.0468V15.5701Z" fill="#FCFCFC"/>
</svg>
