<svg width="21" height="21" viewBox="0 0 21 21" fill="none" xmlns="http://www.w3.org/2000/svg">
<mask id="mask0_1625_729" style="mask-type:alpha" maskUnits="userSpaceOnUse" x="0" y="0" width="21" height="21">
<rect x="0.252319" y="0.429932" width="20.1869" height="20.1869" fill="#D9D9D9"/>
</mask>
<g mask="url(#mask0_1625_729)">
<path d="M8.43221 7.4533L9.86212 5.07714L8.62147 3.01639C8.45324 2.73601 8.21142 2.59583 7.896 2.59583C7.58058 2.59583 7.33876 2.73601 7.17053 3.01639L5.55137 5.729C5.43922 5.92527 5.40768 6.13905 5.45675 6.37036C5.50581 6.60167 5.62848 6.7734 5.82474 6.88555L7.27567 7.7477C7.47193 7.85985 7.68572 7.88788 7.91703 7.83181C8.14834 7.77573 8.32007 7.64957 8.43221 7.4533ZM16.1285 13.8879L14.6986 11.5117C14.5724 11.3155 14.5409 11.1017 14.6039 10.8704C14.667 10.6391 14.7967 10.4673 14.993 10.3552L16.4649 9.51405C16.6612 9.4019 16.8715 9.37386 17.0958 9.42994C17.3201 9.48601 17.4883 9.61218 17.6004 9.80844L18.5257 11.3435C18.6799 11.5818 18.764 11.8482 18.778 12.1426C18.792 12.4369 18.7289 12.7103 18.5888 12.9626C18.4486 13.243 18.2418 13.4673 17.9684 13.6355C17.6951 13.8038 17.3972 13.8879 17.0747 13.8879H16.1285ZM12.9953 19.0608L10.9346 17C10.7663 16.8318 10.6822 16.6355 10.6822 16.4112C10.6822 16.1869 10.7663 15.9907 10.9346 15.8225L12.9953 13.7617C13.1355 13.6215 13.2897 13.5865 13.4579 13.6566C13.6261 13.7267 13.7103 13.8598 13.7103 14.0561V14.729H17.7056L16.486 17.1683C16.3317 17.4486 16.1215 17.6729 15.8551 17.8412C15.5888 18.0094 15.2944 18.0935 14.9719 18.0935H13.7103V18.7664C13.7103 18.9627 13.6261 19.0958 13.4579 19.1659C13.2897 19.236 13.1355 19.201 12.9953 19.0608ZM5.5724 18.0935C5.29203 18.0935 5.03619 18.0199 4.80488 17.8727C4.57357 17.7255 4.40184 17.5327 4.28969 17.2944C4.17754 17.0701 4.12497 16.8353 4.13198 16.59C4.13899 16.3447 4.20558 16.1169 4.33175 15.9066L5.0467 14.729H7.8224C8.06072 14.729 8.26049 14.8096 8.4217 14.9708C8.58292 15.132 8.66352 15.3318 8.66352 15.5701V17.2524C8.66352 17.4907 8.58292 17.6905 8.4217 17.8517C8.26049 18.0129 8.06072 18.0935 7.8224 18.0935H5.5724ZM3.49063 15.6963L2.1238 12.9626C1.99764 12.7103 1.93806 12.4405 1.94507 12.1531C1.95208 11.8657 2.03268 11.5958 2.18689 11.3435L2.52334 10.7757L1.95558 10.4393C1.80137 10.3412 1.73829 10.1975 1.76633 10.0082C1.79436 9.81896 1.8995 9.7033 2.08175 9.66125L4.87848 8.96732C5.10278 8.91125 5.31656 8.94279 5.51983 9.06195C5.7231 9.18111 5.85278 9.35284 5.90885 9.57714L6.60278 12.3949C6.64483 12.5771 6.58876 12.7243 6.43455 12.8365C6.28035 12.9486 6.12614 12.9556 5.97193 12.8575L5.40418 12.5L3.49063 15.6963ZM14.0257 8.29443L11.2289 7.6005C11.0467 7.55844 10.9451 7.44279 10.924 7.25354C10.903 7.06429 10.9696 6.92059 11.1238 6.82246L11.6916 6.48601L9.06306 2.11218H12.028C12.3224 2.11218 12.5993 2.18578 12.8586 2.33298C13.118 2.48017 13.3247 2.67994 13.4789 2.93228L14.5724 4.76172L15.1191 4.42527C15.2733 4.32714 15.4275 4.33415 15.5817 4.44629C15.736 4.55844 15.792 4.70564 15.75 4.88788L15.056 7.68461C15 7.90891 14.8703 8.08064 14.667 8.1998C14.4638 8.31896 14.25 8.3505 14.0257 8.29443Z" fill="#8AAABC"/>
</g>
</svg>
