<svg width="21" height="22" viewBox="0 0 21 22" fill="none" xmlns="http://www.w3.org/2000/svg">
<g clip-path="url(#clip0_1625_745)">
<path fill-rule="evenodd" clip-rule="evenodd" d="M7.79171 15.9045L9.66669 18.3413C9.8369 18.5625 9.80705 18.8757 9.60033 19.0632L8.95554 19.6484C8.84037 19.7529 8.70178 19.7993 8.54691 19.7853C8.39208 19.7713 8.26453 19.7004 8.16947 19.5774L6.09073 16.8865L7.79171 15.9045ZM18.0771 9.6506H19.9867C20.2922 9.6506 20.5394 9.40114 20.5387 9.09609C20.5381 8.79065 20.289 8.54383 19.984 8.54383H18.0744C17.7689 8.54383 17.5218 8.79329 17.5224 9.0983C17.523 9.40383 17.7721 9.6506 18.0771 9.6506ZM15.8105 4.62272L16.7653 2.96897C16.9179 2.70477 16.8287 2.36569 16.5644 2.2124C16.3006 2.05934 15.9609 2.14864 15.8082 2.41316L14.8534 4.06691C14.7009 4.33111 14.7901 4.67019 15.0543 4.82349C15.3182 4.97654 15.6577 4.88724 15.8105 4.62272ZM18.0199 6.60364L19.5876 5.6985C19.8538 5.54485 19.9449 5.20463 19.7913 4.93846C19.6376 4.67232 19.2974 4.58116 19.0312 4.73481L17.4635 5.63999C17.1974 5.79364 17.1062 6.13386 17.2598 6.40004C17.4135 6.66613 17.7537 6.75729 18.0199 6.60364ZM15.5541 9.0942L17.4033 12.2971C17.7505 12.8984 17.5425 13.6744 16.9412 14.0216C16.3801 14.3456 15.6668 14.1861 15.2919 13.6747H15.2918C13.2449 13.3633 10.5787 13.6978 7.92746 14.7313L5.37863 10.3167C7.60013 8.5393 9.22794 6.40879 9.98176 4.48051L9.9818 4.48043C9.717 3.89737 9.93452 3.19162 10.5 2.86512C11.1014 2.51792 11.8774 2.7259 12.2246 3.32721L14.0737 6.53007C14.1271 6.48884 14.1832 6.45124 14.2415 6.41754C14.9561 6.00501 15.8698 6.24982 16.2823 6.96436C16.6948 7.67891 16.45 8.5926 15.7355 9.00514C15.6771 9.03886 15.6165 9.06862 15.5541 9.0942ZM7.28657 15.1983L4.61578 10.5725L2.49257 11.7983C1.20242 12.5432 0.756335 14.2082 1.50116 15.4983L1.5012 15.4983C2.24607 16.7884 3.91101 17.2345 5.20116 16.4897L7.32438 15.2639L7.28657 15.1983Z" fill="#00476D"/>
</g>
<defs>
<clipPath id="clip0_1625_745">
<rect width="20.1869" height="20.1869" fill="white" transform="translate(0.746094 0.869263)"/>
</clipPath>
</defs>
</svg>
