<svg width="90" height="93" viewBox="0 0 90 93" fill="none" xmlns="http://www.w3.org/2000/svg">
<rect x="1.215" y="1.215" width="87.57" height="90" rx="43.785" stroke="#545454" stroke-width="2.43"/>
<path d="M41.6567 54.1871L43.6006 48.7948C44.038 47.6024 45.9799 47.6024 46.3977 48.7948L48.3396 54.1871C48.4303 54.4444 48.45 54.7166 48.3971 54.9817C48.3441 55.2468 48.2201 55.4974 48.0349 55.7133C47.8497 55.9292 47.6086 56.1043 47.331 56.2245C47.0535 56.3447 46.7472 56.4066 46.4369 56.4052H43.5614C43.2505 56.4081 42.9433 56.3471 42.6649 56.2273C42.3864 56.1076 42.1445 55.9324 41.959 55.7161C41.7735 55.4998 41.6496 55.2486 41.5974 54.9828C41.5452 54.7171 41.5662 54.4444 41.6587 54.1871M44.9991 59.6287C43.2385 59.6386 41.5009 59.2816 39.9326 58.5877C39.4324 58.3665 38.893 58.8564 39.2088 59.2511C39.8426 60.0788 40.7035 60.7571 41.7141 61.2253C42.7246 61.6934 43.8534 61.9368 44.9991 61.9336C46.1449 61.9368 47.2736 61.6934 48.2842 61.2253C49.2948 60.7571 50.1556 60.0788 50.7895 59.2511C51.1034 58.8411 50.5659 58.3665 50.0657 58.5877C48.4982 59.2834 46.76 59.6406 44.9991 59.6287ZM53.7435 45.1784C56.1248 45.1784 58.1373 46.6073 58.7003 48.5243C58.7364 48.6533 58.7382 48.7876 58.7053 48.9172C58.6725 49.0468 58.6059 49.1682 58.5107 49.272C58.4155 49.3759 58.2943 49.4596 58.1561 49.5166C58.018 49.5736 57.8666 49.6025 57.7136 49.6011H56.1444C56.2789 49.1799 56.2991 48.7374 56.2034 48.3083C56.1077 47.8792 55.8987 47.4751 55.5928 47.1278C55.2868 46.7804 54.8923 46.4992 54.4402 46.3062C53.988 46.1132 53.4904 46.0137 52.9864 46.0153C52.5576 46.0135 52.1326 46.0856 51.7362 46.2274C51.3398 46.3693 50.9798 46.578 50.6772 46.8415C50.3746 47.1051 50.1354 47.4181 49.9736 47.7625C49.8117 48.1068 49.7303 48.4757 49.7342 48.8475C49.7342 49.1146 49.7735 49.3664 49.8519 49.6011H49.5596C49.4363 49.6018 49.3143 49.5789 49.2023 49.5341C49.0903 49.4893 48.9911 49.4236 48.9117 49.3418C48.8323 49.2599 48.7747 49.1639 48.7429 49.0605C48.7112 48.9572 48.7061 48.849 48.728 48.7438C48.9573 47.7372 49.5831 46.8311 50.4981 46.1807C51.4131 45.5302 52.5604 45.1759 53.7435 45.1784ZM31.298 48.5243C31.5815 47.548 32.2396 46.6844 33.1643 46.0755C34.0889 45.4666 35.2249 45.1486 36.3855 45.174C37.5462 45.1993 38.6623 45.5664 39.5504 46.2149C40.4386 46.8633 41.0458 47.7546 41.2723 48.7421C41.2945 48.8476 41.2896 48.9561 41.2579 49.0598C41.2262 49.1635 41.1684 49.2598 41.0888 49.3419C41.0091 49.424 40.9095 49.4898 40.7971 49.5346C40.6848 49.5794 40.5623 49.6021 40.4386 49.6011H40.1483C40.2268 49.3664 40.2641 49.1146 40.2641 48.8475C40.2641 47.2724 38.8125 46.0153 37.0099 46.0153C36.5061 46.0139 36.0087 46.1137 35.5568 46.3068C35.1049 46.4999 34.7106 46.7811 34.4049 47.1284C34.0992 47.4758 33.8904 47.8797 33.7948 48.3087C33.6992 48.7377 33.7194 49.18 33.8538 49.6011H32.2846C32.1316 49.6025 31.9803 49.5736 31.8422 49.5166C31.704 49.4596 31.5827 49.3759 31.4875 49.272C31.3924 49.1682 31.3258 49.0468 31.293 48.9172C31.2601 48.7876 31.2618 48.6533 31.298 48.5243Z" fill="#545454"/>
<path d="M51.1108 48.8474C51.1106 48.5293 51.2199 48.2183 51.4246 47.9544C51.509 48.1415 51.7189 48.2741 51.9621 48.2741C52.0865 48.273 52.2073 48.2377 52.3071 48.1734C52.407 48.109 52.4807 48.0188 52.5177 47.9158C52.5548 47.8128 52.5532 47.7023 52.5133 47.6001C52.4734 47.4979 52.3971 47.4093 52.2955 47.3471C52.6488 47.2262 53.0364 47.2021 53.406 47.2781C53.7755 47.3541 54.1094 47.5266 54.3624 47.7722C54.6155 48.0178 54.7757 48.3248 54.8214 48.6518C54.8671 48.9788 54.7961 49.31 54.618 49.601H51.3265C51.1872 49.368 51.1133 49.1098 51.1108 48.8474ZM37.0115 47.2382C37.3319 47.2375 37.6472 47.3087 37.9266 47.4449C38.206 47.5811 38.44 47.7777 38.6058 48.0155C38.7717 48.2533 38.8637 48.5243 38.8731 48.8021C38.8824 49.08 38.8087 49.3552 38.6591 49.601H35.3657C35.2277 49.3677 35.1551 49.1095 35.1539 48.8474C35.1539 48.5548 35.2441 48.2793 35.403 48.0428C35.4707 48.1353 35.5714 48.206 35.6898 48.2442C35.8081 48.2824 35.9377 48.2859 36.0586 48.2543C36.1795 48.2227 36.2852 48.1577 36.3595 48.0691C36.4338 47.9805 36.4726 47.8733 36.4701 47.7638C36.4704 47.6898 36.4521 47.6167 36.4165 47.5494C36.381 47.4821 36.329 47.4224 36.2641 47.3743C36.4997 47.2845 36.7542 47.2382 37.0115 47.2382ZM30.9406 43.7154C31.2712 44.0595 31.7451 44.2766 32.2592 44.3196C32.7734 44.3626 33.2863 44.228 33.6867 43.945L33.6965 43.9382L33.7161 43.9263C34.0587 43.7229 34.4265 43.5534 34.8126 43.4211C35.8964 43.0544 37.0743 42.9486 38.2217 43.1149C38.4788 43.1553 38.7427 43.1507 38.9977 43.1015C39.2528 43.0522 39.4939 42.9593 39.707 42.8281C39.9201 42.6969 40.1007 42.5301 40.2384 42.3375C40.3761 42.1449 40.4681 41.9304 40.5088 41.7065C40.5496 41.4827 40.5384 41.2541 40.4759 41.034C40.4133 40.814 40.3007 40.6071 40.1447 40.4253C39.9886 40.2435 39.7923 40.0906 39.5672 39.9756C39.342 39.8605 39.0927 39.7857 38.8337 39.7554C36.993 39.4941 35.1052 39.668 33.3689 40.2589C32.834 40.4408 32.3193 40.6646 31.8311 40.9274C31.6361 41.033 31.447 41.1466 31.2642 41.2676L31.2211 41.2982L31.2034 41.3101L31.1975 41.3152L31.1936 41.3186H31.1917C30.9933 41.4617 30.8295 41.6372 30.7095 41.8353C30.5895 42.0333 30.5157 42.2499 30.4924 42.4727C30.4691 42.6955 30.4967 42.9201 30.5736 43.1336C30.6505 43.3471 30.7752 43.5454 30.9406 43.7171M58.6136 41.3186C59.0123 41.6087 59.2618 42.0243 59.3073 42.4739C59.3527 42.9236 59.1903 43.3704 58.8558 43.7162C58.5213 44.062 58.0421 44.2784 57.5236 44.3178C57.0051 44.3572 56.4898 44.2164 56.0911 43.9263C55.7485 43.7229 55.3807 43.5534 54.9946 43.4211C53.9102 43.0541 52.7316 42.9483 51.5835 43.1149C51.3264 43.1553 51.0625 43.1507 50.8075 43.1015C50.5524 43.0522 50.3113 42.9593 50.0982 42.8281C49.8852 42.6969 49.7045 42.5301 49.5668 42.3375C49.4291 42.1449 49.3371 41.9304 49.2964 41.7065C49.2556 41.4827 49.2668 41.2541 49.3293 41.034C49.3919 40.814 49.5045 40.6071 49.6605 40.4253C49.8166 40.2435 50.0129 40.0906 50.2381 39.9756C50.4632 39.8605 50.7126 39.7857 50.9715 39.7554C52.8122 39.4941 54.7 39.668 56.4363 40.2589C57.0914 40.4834 57.6093 40.7301 57.9741 40.9274C58.1846 41.0425 58.3882 41.1669 58.5841 41.2999L58.6018 41.3101L58.6077 41.3152L58.6136 41.3186Z" fill="#545454"/>
<path d="M47.5228 21.4375C45.9595 21.8319 44.3007 21.8425 42.7308 21.4681C39.2492 20.0426 35.334 20.7231 32.6663 22.8153C32.6298 22.8437 32.5944 22.8732 32.5604 22.9038L29.1219 26.0337C28.1843 26.6801 27.3604 27.2414 26.5621 27.6599L25.0635 28.3063C21.5151 29.8355 19.5772 33.2682 20.0656 36.6396L20.0852 36.7519L21.8702 44.7281C20.8902 45.5564 20.177 46.5926 19.8014 47.7338C19.4258 48.875 19.4008 50.0815 19.7289 51.2337C20.0571 52.3858 20.7269 53.4435 21.672 54.3018C22.617 55.1602 23.8045 55.7893 25.1165 56.1267L25.5166 60.6174L25.5186 60.6413C26.1953 67.1018 31.9033 71.715 39.2158 71.715H50.9594C58.0541 71.715 63.9779 67.1188 64.6546 60.6413L64.6586 60.6021L65.0077 56.0944C66.3052 55.7403 67.4743 55.0999 68.4003 54.2359C69.3263 53.3719 69.9775 52.3141 70.2901 51.166C70.6026 50.018 70.5656 48.8193 70.1829 47.6874C69.8002 46.5555 69.0848 45.5292 68.1069 44.7094L69.8507 36.9203L69.8566 36.8931C70.5882 33.3175 68.6404 29.8457 65.0705 28.3063L63.5013 27.6293C62.3832 27.1479 61.7222 26.7736 61.2122 26.2259C61.1668 26.1766 61.1184 26.1294 61.067 26.0847L58.1248 23.5468L58.062 23.4957C55.2257 21.2538 51.1732 20.3999 47.5228 21.4375ZM66.0414 47.8852C66.3755 48.381 66.5595 48.942 66.5762 49.5161C66.593 50.0901 66.4418 50.6585 66.137 51.1683C65.8321 51.678 65.3834 52.1125 64.8327 52.4314C64.282 52.7502 63.6471 52.943 62.9873 52.9917C62.5197 53.0258 62.0817 53.2042 61.7527 53.4944C61.4238 53.7847 61.2257 54.1676 61.1945 54.5737L60.7473 60.3538C60.2412 65.0929 55.9906 68.3129 50.9594 68.3129H39.2139C34.0041 68.3129 29.9281 65.1065 29.4259 60.3453L28.9159 54.5635C28.8796 54.155 28.6744 53.7716 28.3382 53.4838C28.002 53.196 27.5573 53.023 27.0858 52.9968C26.419 52.9585 25.7746 52.7731 25.2136 52.4582C24.6526 52.1434 24.1936 51.7094 23.8802 51.1976C23.5668 50.6857 23.4094 50.113 23.4229 49.5336C23.4364 48.9542 23.6203 48.3874 23.9572 47.8869C24.0357 47.8954 24.1181 47.9005 24.2005 47.9005H26.4052C26.6743 47.9004 26.9404 47.8522 27.1871 47.7591C27.4338 47.666 27.6558 47.5298 27.8392 47.3591C28.0226 47.1884 28.1636 46.9867 28.2533 46.7668C28.3431 46.5468 28.3797 46.3132 28.3608 46.0804C28.2831 45.0965 28.1949 44.1133 28.096 43.1308C28.1156 42.6273 28.3765 42.2582 28.4824 42.1901C28.5566 42.1418 28.6268 42.0889 28.6923 42.0319L29.2121 41.5846C30.7166 40.501 31.2325 38.9599 31.2325 37.6109V34.9063L31.2344 34.8791C31.2614 34.8745 31.2882 34.8694 31.3149 34.8638C33.5392 34.3841 38.2841 33.5608 45.1631 33.5608C52.0323 33.5608 56.7752 34.3807 59.0035 34.8604C59.0274 34.8901 59.059 34.9145 59.0957 34.9318V37.6109C59.0957 39.0449 59.8411 40.3768 60.8081 41.3073L61.0709 41.7598C61.1651 41.9231 61.2906 42.0728 61.4397 42.202C61.7917 42.4877 62.0056 42.8786 62.038 43.2958C61.9438 44.131 61.8516 45.201 61.781 46.0821C61.7625 46.3147 61.7993 46.5482 61.8891 46.768C61.979 46.9877 62.12 47.1891 62.3034 47.3597C62.4868 47.5302 62.7087 47.6662 62.9552 47.7592C63.2018 47.8523 63.4678 47.9004 63.7366 47.9005H65.7766C65.8652 47.9001 65.9537 47.8961 66.0414 47.8852ZM31.87 28.4645L35.3477 25.3005C36.9483 24.0741 39.2001 23.7441 41.1538 24.5861C41.2519 24.6286 41.3578 24.6644 41.4657 24.6916C43.8352 25.298 46.3571 25.2926 48.7232 24.6763C50.9398 24.0401 53.5289 24.5317 55.3904 25.9861L58.2287 28.4356C59.2762 29.531 60.5433 30.1536 61.7536 30.6758L63.3228 31.3528C65.2431 32.1795 66.4337 34.1153 65.9963 36.2858L65.0195 40.6524C64.848 40.4245 64.6565 40.2084 64.4467 40.006L64.1839 39.5552C64.0886 39.3914 63.9634 39.2421 63.8131 39.113C63.3267 38.6928 63.0187 38.0923 63.0187 37.6109V34.9063C63.0187 33.144 61.4613 31.8853 59.9607 31.5621C57.4775 31.0262 52.4109 30.1587 45.1651 30.1587C37.9565 30.1587 32.9056 31.0177 30.4067 31.5536C28.4785 31.9074 27.3114 33.3158 27.3114 34.9046V37.6109C27.3114 38.2658 27.0643 38.72 26.6778 38.9888C26.6209 39.0275 26.5666 39.069 26.515 39.113L26.009 39.5484C25.583 39.8511 25.2247 40.2189 24.9517 40.6337L23.9513 36.1634C23.6826 34.1391 24.8791 32.1829 26.8093 31.3528L28.3785 30.6758C28.424 30.6565 28.4685 30.6355 28.5119 30.6129C29.6064 30.0464 30.6734 29.3099 31.6169 28.6584L31.6679 28.6244C31.7395 28.5752 31.807 28.5218 31.87 28.4645Z" fill="#545454"/>
</svg>
