<svg width="90" height="93" fill="none" xmlns="http://www.w3.org/2000/svg">
    <rect x="1.216" y="1.216" width="87.568" height="90" rx="43.784" fill="#fff"/>
    <rect x="1.216" y="1.216" width="87.568" height="90" rx="43.784" stroke="#545454" stroke-width="2.432"/>
    <path d="m62.027 19.46-2.651 5.862-5.862 2.651 5.862 2.651 2.651 5.863 2.676-5.863 5.838-2.651-5.838-2.651m-20.92-3.43c-13.378 0-24.324 10.946-24.324 24.324v24.325h48.65V46.216c0-3.575-.804-6.98-2.19-10.046l-3.016 6.568c.219 1.143.34 2.262.34 3.478a19.423 19.423 0 0 1-19.46 19.46 19.423 19.423 0 0 1-19.459-19.46v-.34a24.154 24.154 0 0 0 13.962-13.5 24.324 24.324 0 0 0 22.111 8.756l-2.116-4.645h-1.119c-6.86 0-13.135-3.65-16.638-9.438 1.07-.17 2.14-.292 3.26-.292 1.216 0 2.335.121 3.454.316l6.592-2.968a24.08 24.08 0 0 0-10.046-2.213Zm-9.51 7.297a19.75 19.75 0 0 1-8.951 10.946c1.532-4.694 4.767-8.513 8.951-10.946Zm2.213 16.42a3.04 3.04 0 1 0 0 6.08 3.04 3.04 0 0 0 0-6.08Zm14.595 0a3.04 3.04 0 1 0 0 6.08 3.04 3.04 0 0 0 0-6.08ZM24.324 60.737a24.993 24.993 0 0 0 4.938 4.938h-4.938m38.92-4.938v4.938h-4.939a24.996 24.996 0 0 0 4.938-4.938Z" fill="#545454"/>
</svg>
