<svg width="25" height="24" viewBox="0 0 25 24" fill="none" xmlns="http://www.w3.org/2000/svg">
<g clip-path="url(#clip0_1907_1869)">
<path fill-rule="evenodd" clip-rule="evenodd" d="M12.493 19.7961C8.1907 19.7961 4.68982 16.2953 4.68982 11.993C4.68982 7.6907 8.1907 4.18982 12.493 4.18982C16.7953 4.18982 20.2961 7.6907 20.2961 11.993C20.2961 16.2953 16.7953 19.7961 12.493 19.7961Z" fill="white"/>
<path fill-rule="evenodd" clip-rule="evenodd" d="M12.493 3.00879C12.2961 3.00879 12.1274 2.85413 12.1274 2.64323V0.365554C12.1274 0.168717 12.2961 0 12.493 0C12.7039 0 12.8585 0.168717 12.8585 0.365554V2.64323C12.8585 2.85413 12.7039 3.00879 12.493 3.00879ZM17.1749 4.26011C17.1046 4.26011 17.0483 4.24605 16.9921 4.21793C16.8093 4.11951 16.7531 3.89455 16.8515 3.72583L18.0044 1.74341C18.1028 1.56063 18.3278 1.50439 18.4965 1.60281C18.6652 1.70123 18.7355 1.92619 18.623 2.10896L17.4842 4.07733C17.4139 4.20387 17.3014 4.26011 17.1749 4.26011ZM20.5914 7.69069C20.4649 7.69069 20.3383 7.62039 20.2821 7.50791C20.1837 7.32513 20.2399 7.11424 20.4086 7.00176L22.391 5.86292C22.5598 5.7645 22.7847 5.82074 22.8831 6.00351C22.9815 6.17223 22.9253 6.39719 22.7566 6.49561L20.7742 7.63445C20.7179 7.67663 20.6617 7.69069 20.5914 7.69069ZM24.1344 12.3585H21.8427C21.6459 12.3585 21.4772 12.2039 21.4772 11.993C21.4772 11.7961 21.6459 11.6274 21.8427 11.6274H24.1344C24.3313 11.6274 24.5 11.7961 24.5 11.993C24.5 12.2039 24.3313 12.3585 24.1344 12.3585ZM22.5738 18.1793C22.5035 18.1793 22.4473 18.1652 22.391 18.123L20.4086 16.9842C20.2399 16.8858 20.1837 16.6608 20.2821 16.4921C20.3805 16.3093 20.6054 16.2531 20.7742 16.3515L22.7566 17.5044C22.9253 17.6028 22.9815 17.8278 22.8831 17.9965C22.8269 18.109 22.7004 18.1793 22.5738 18.1793ZM18.3137 22.4394C18.1872 22.4394 18.0606 22.3691 18.0044 22.2566L16.8515 20.2742C16.7531 20.1054 16.8093 19.8805 16.9921 19.7821C17.1608 19.6837 17.3858 19.7399 17.4842 19.9086L18.623 21.891C18.7355 22.0598 18.6652 22.2847 18.4965 22.3831C18.4402 22.4253 18.3699 22.4394 18.3137 22.4394ZM12.493 24C12.2961 24 12.1274 23.8313 12.1274 23.6344V21.3427C12.1274 21.1459 12.2961 20.9772 12.493 20.9772C12.7039 20.9772 12.8585 21.1459 12.8585 21.3427V23.6344C12.8585 23.8313 12.7039 24 12.493 24ZM6.68629 22.4394C6.61599 22.4394 6.55975 22.4253 6.50351 22.3831C6.32074 22.2847 6.2645 22.0598 6.36292 21.891L7.50176 19.9086C7.61424 19.7399 7.82513 19.6696 8.00791 19.7821C8.17663 19.8805 8.23286 20.1054 8.13445 20.2742L6.99561 22.2566C6.92531 22.3691 6.81283 22.4394 6.68629 22.4394ZM2.42619 18.1793C2.29965 18.1793 2.17311 18.109 2.10281 17.9965C2.00439 17.8278 2.06063 17.6028 2.24341 17.5044L4.22583 16.3515C4.39455 16.2531 4.61951 16.3093 4.71793 16.4921C4.81634 16.6608 4.76011 16.8858 4.59139 16.9842L2.60896 18.123C2.55272 18.1652 2.48243 18.1793 2.42619 18.1793ZM3.14323 12.3585H0.865554C0.668717 12.3585 0.5 12.2039 0.5 11.993C0.5 11.7961 0.668717 11.6274 0.865554 11.6274H3.14323C3.35413 11.6274 3.50879 11.7961 3.50879 11.993C3.50879 12.2039 3.35413 12.3585 3.14323 12.3585ZM4.40861 7.69069C4.33831 7.69069 4.28207 7.67663 4.22583 7.63445L2.24341 6.49561C2.06063 6.39719 2.00439 6.17223 2.10281 6.00351C2.20123 5.82074 2.42619 5.7645 2.60896 5.86292L4.59139 7.00176C4.76011 7.11424 4.81634 7.32513 4.71793 7.50791C4.64763 7.62039 4.52109 7.69069 4.40861 7.69069ZM7.82513 4.26011C7.69859 4.26011 7.57206 4.20387 7.50176 4.09139L6.36292 2.10896C6.2645 1.92619 6.32074 1.70123 6.50351 1.60281C6.67223 1.50439 6.89719 1.56063 6.99561 1.74341L8.13445 3.72583C8.23286 3.89455 8.17663 4.11951 8.00791 4.21793C7.95167 4.24605 7.88137 4.26011 7.82513 4.26011Z" fill="white"/>
<path fill-rule="evenodd" clip-rule="evenodd" d="M15.1362 16.4218C15.094 16.4218 15.0519 16.4218 15.0097 16.3937L12.493 15.4236L9.99035 16.3937C9.87788 16.4499 9.73728 16.4218 9.63886 16.3515C9.54044 16.2812 9.4842 16.1687 9.49826 16.0422L9.65292 13.3568L7.93763 11.2759C7.86733 11.1775 7.83921 11.051 7.88139 10.9244C7.92357 10.812 8.00793 10.7135 8.13447 10.6854L10.7355 10.0106L12.1977 7.73287C12.254 7.63446 12.3805 7.57822 12.493 7.57822C12.6195 7.57822 12.732 7.63446 12.8023 7.73287L14.2645 10.0106L16.8656 10.6854C16.9781 10.7135 17.0765 10.812 17.1186 10.9244C17.1608 11.051 17.1327 11.1775 17.0483 11.2759L15.3471 13.3568L15.5018 16.0422C15.5018 16.1687 15.4455 16.2812 15.3471 16.3515C15.2909 16.4077 15.2065 16.4218 15.1362 16.4218Z" fill="#D4AF35"/>
</g>
<defs>
<clipPath id="clip0_1907_1869">
<rect width="24" height="24" fill="white" transform="translate(0.5)"/>
</clipPath>
</defs>
</svg>
