<svg width="94" height="93" viewBox="0 0 94 93" fill="none" xmlns="http://www.w3.org/2000/svg">
<rect x="1.21622" y="1.21622" width="87.5676" height="90" rx="43.7838" fill="white"/>
<rect x="1.21622" y="1.21622" width="87.5676" height="90" rx="43.7838" stroke="#00476D" stroke-width="2.43243"/>
<path d="M62.027 19.4595L59.3757 25.3216L53.5135 27.973L59.3757 30.6243L62.027 36.4865L64.7027 30.6243L70.5406 27.973L64.7027 25.3216M43.7838 21.8919C30.4054 21.8919 19.4595 32.8379 19.4595 46.2162V70.5406H68.1081V46.2162C68.1081 42.6406 67.3054 39.2351 65.9189 36.1703L62.9027 42.7379C63.1216 43.8811 63.2433 45 63.2433 46.2162C63.2433 56.9919 54.5595 65.6757 43.7838 65.6757C33.0081 65.6757 24.3243 56.9919 24.3243 46.2162V45.8757C27.4591 44.7142 30.3187 42.9146 32.722 40.5908C35.1254 38.267 37.0202 35.4696 38.2865 32.3757C40.9143 35.6058 44.3273 38.1072 48.1988 39.6405C52.0702 41.1737 56.2705 41.6874 60.3973 41.1324L58.2811 36.4865H57.1622C50.3027 36.4865 44.027 32.8379 40.5243 27.0487C41.5946 26.8784 42.6649 26.7568 43.7838 26.7568C45 26.7568 46.1189 26.8784 47.2379 27.073L53.8297 24.1054C50.6796 22.6526 47.2528 21.8975 43.7838 21.8919ZM34.273 29.1892C32.7422 33.8175 29.554 37.7162 25.3216 40.1351C26.8541 35.4406 30.0892 31.6216 34.273 29.1892ZM36.4865 45.6081C35.6801 45.6081 34.9067 45.9285 34.3365 46.4987C33.7663 47.0689 33.446 47.8423 33.446 48.6487C33.446 49.4551 33.7663 50.2284 34.3365 50.7986C34.9067 51.3689 35.6801 51.6892 36.4865 51.6892C37.2929 51.6892 38.0663 51.3689 38.6365 50.7986C39.2067 50.2284 39.527 49.4551 39.527 48.6487C39.527 47.8423 39.2067 47.0689 38.6365 46.4987C38.0663 45.9285 37.2929 45.6081 36.4865 45.6081ZM51.0811 45.6081C50.2747 45.6081 49.5013 45.9285 48.9311 46.4987C48.3609 47.0689 48.0406 47.8423 48.0406 48.6487C48.0406 49.4551 48.3609 50.2284 48.9311 50.7986C49.5013 51.3689 50.2747 51.6892 51.0811 51.6892C51.8875 51.6892 52.6609 51.3689 53.2311 50.7986C53.8013 50.2284 54.1216 49.4551 54.1216 48.6487C54.1216 47.8423 53.8013 47.0689 53.2311 46.4987C52.6609 45.9285 51.8875 45.6081 51.0811 45.6081ZM24.3243 60.7379C25.7351 62.6108 27.3892 64.2649 29.2622 65.6757H24.3243M63.2433 60.7379V65.6757H58.3054C60.1784 64.2649 61.8324 62.6108 63.2433 60.7379Z" fill="#00476D"/>
<path fill-rule="evenodd" clip-rule="evenodd" d="M82 21C83.1819 21 84.3522 20.7672 85.4442 20.3149C86.5361 19.8626 87.5282 19.1997 88.364 18.364C89.1997 17.5282 89.8626 16.5361 90.3149 15.4442C90.7672 14.3522 91 13.1819 91 12C91 10.8181 90.7672 9.64778 90.3149 8.55585C89.8626 7.46392 89.1997 6.47177 88.364 5.63604C87.5282 4.80031 86.5361 4.13738 85.4442 3.68508C84.3522 3.23279 83.1819 3 82 3C79.6131 3 77.3239 3.94821 75.636 5.63604C73.9482 7.32387 73 9.61305 73 12C73 14.3869 73.9482 16.6761 75.636 18.364C77.3239 20.0518 79.6131 21 82 21ZM81.768 15.64L86.768 9.64L85.232 8.36L80.932 13.519L78.707 11.293L77.293 12.707L80.293 15.707L81.067 16.481L81.768 15.64Z" fill="#00476D"/>
</svg>
