<svg width="19" height="24" viewBox="0 0 19 24" fill="none" xmlns="http://www.w3.org/2000/svg">
<path d="M12.688 8.13151L10.7797 7.85439L9.9262 6.12472C9.88704 6.04538 9.82647 5.97858 9.75133 5.93187C9.67619 5.88517 9.58949 5.86041 9.50101 5.86041C9.41254 5.86041 9.32583 5.88517 9.2507 5.93187C9.17556 5.97858 9.11499 6.04538 9.07583 6.12472L8.22232 7.85439L6.3135 8.13151C6.2259 8.14413 6.14357 8.18102 6.07585 8.23801C6.00813 8.295 5.95771 8.3698 5.9303 8.45396C5.90288 8.53811 5.89957 8.62826 5.92074 8.7142C5.94191 8.80014 5.98671 8.87844 6.05008 8.94024L7.43098 10.2864L7.10484 12.1873C7.09318 12.2553 7.09653 12.3251 7.11464 12.3917C7.13276 12.4583 7.1652 12.5202 7.20971 12.573C7.25422 12.6258 7.30972 12.6682 7.37232 12.6973C7.43493 12.7264 7.50314 12.7415 7.57219 12.7415C7.64927 12.7409 7.72505 12.7216 7.79296 12.6851L9.5 11.7895L11.207 12.6851C11.2852 12.7266 11.3735 12.7453 11.4618 12.7392C11.5501 12.7331 11.6349 12.7024 11.7067 12.6506C11.7784 12.5988 11.8343 12.528 11.8678 12.4461C11.9014 12.3642 11.9114 12.2745 11.8967 12.1873L11.5706 10.2864L12.9515 8.94024C13.0262 8.86734 13.0748 8.77183 13.0897 8.66852C13.127 8.40927 12.9472 8.16886 12.688 8.13151ZM10.7291 9.77738C10.6738 9.83122 10.6325 9.89776 10.6087 9.97121C10.5849 10.0447 10.5794 10.1228 10.5927 10.1989L10.7982 11.3985L9.72077 10.8321C9.65239 10.7969 9.57647 10.7788 9.49954 10.7795C9.42262 10.7801 9.347 10.7995 9.27922 10.8358L8.20182 11.4022L8.40783 10.2026C8.42112 10.1265 8.41563 10.0484 8.39186 9.97491C8.36808 9.90145 8.32672 9.83491 8.27138 9.78108L7.39994 8.93125L8.60432 8.75633C8.68041 8.74532 8.75268 8.71597 8.81491 8.67081C8.87714 8.62566 8.92746 8.56606 8.96154 8.49713L9.5 7.4055L10.0385 8.49713C10.0725 8.56607 10.1228 8.62568 10.1851 8.67084C10.2473 8.71599 10.3196 8.74533 10.3957 8.75633L11.6006 8.92809L10.7291 9.77738Z" fill="white"/>
<path d="M9.50011 3.23541C6.09224 3.23541 3.32959 5.99807 3.32959 9.40593C3.32959 12.8138 6.09224 15.5765 9.50011 15.5765C12.9064 15.5727 15.6669 12.8122 15.6706 9.40593C15.6706 5.99807 12.908 3.23541 9.50011 3.23541ZM9.50011 14.6281C6.61599 14.6281 4.27792 12.2901 4.27792 9.40593C4.27792 6.52181 6.61599 4.18375 9.50011 4.18375C12.3829 4.18696 14.7191 6.52315 14.7223 9.40593C14.7223 12.2901 12.3842 14.6281 9.50011 14.6281Z" fill="white"/>
<path d="M18.1847 10.6846L17.2975 11.0202C17.4355 11.3853 17.6073 11.8395 17.5483 12.0213C17.4818 12.2257 17.0799 12.4875 16.7248 12.7188C16.3033 12.9938 15.8238 13.3057 15.4945 13.7588C15.1652 14.2119 15.0099 14.773 14.8765 15.263C14.7711 15.6481 14.6416 16.1276 14.4735 16.2498C14.3054 16.372 13.8186 16.3451 13.4198 16.3262C12.9103 16.302 12.3329 16.2735 11.7897 16.4516C11.2629 16.6223 10.825 16.9784 10.4373 17.2909C10.1048 17.5596 9.72758 17.8641 9.50054 17.8641C9.2735 17.8641 8.89621 17.5596 8.56328 17.2898C8.1755 16.9763 7.73614 16.6213 7.21138 16.4511C6.91109 16.3536 6.57442 16.3083 6.15138 16.3083C5.95591 16.3083 5.76467 16.3173 5.58028 16.3263C5.18463 16.3452 4.69251 16.3684 4.52974 16.2498C4.36697 16.1313 4.23154 15.6471 4.12618 15.262C3.99289 14.7715 3.84221 14.2161 3.50869 13.7578C3.17517 13.2994 2.70049 12.9933 2.27793 12.7178C1.92338 12.4865 1.52137 12.2247 1.45497 12.0203C1.39595 11.8396 1.56825 11.3849 1.7063 11.0192C1.88914 10.5361 2.09563 9.98869 2.09563 9.40598C2.09563 8.82327 1.88855 8.27587 1.70576 7.79274C1.56771 7.42765 1.39595 6.97294 1.45443 6.7917C1.52084 6.5873 1.92279 6.32543 2.27793 6.09363C2.69942 5.81859 3.17832 5.50669 3.50815 5.05417C3.83798 4.60159 3.99283 4.03996 4.12618 3.54998C4.23154 3.16483 4.36113 2.68539 4.52921 2.56317C4.69728 2.44096 5.1841 2.46782 5.58028 2.48676C6.08973 2.511 6.66774 2.53947 7.21352 2.36139C7.74037 2.1907 8.17764 1.83455 8.56596 1.52211C8.89578 1.25237 9.27302 0.948335 9.50006 0.948335C9.7271 0.948335 10.1044 1.25232 10.4368 1.52206C10.8246 1.83551 11.2639 2.19065 11.7892 2.36134C12.3329 2.53781 12.9109 2.51042 13.4225 2.48671C13.8181 2.46825 14.3102 2.44508 14.473 2.56312C14.6358 2.68116 14.7686 3.16424 14.8739 3.54993C15.0072 4.04044 15.1579 4.59576 15.4914 5.05411C15.825 5.51247 16.2996 5.81913 16.7222 6.09411C17.0768 6.32537 17.4787 6.58724 17.5457 6.79165C17.6047 6.97288 17.4324 7.42755 17.2944 7.79269C17.1115 8.27582 16.9045 8.82375 16.9045 9.40592C16.9045 9.9881 17.1116 10.536 17.2944 11.0192L17.7379 10.8516L18.1815 10.6841C18.0124 10.2373 17.8528 9.81532 17.8528 9.40592C17.8528 8.99653 18.0108 8.57456 18.181 8.12776C18.4007 7.54821 18.6088 6.99659 18.447 6.49874C18.2769 5.97559 17.7495 5.63206 17.2395 5.29961C16.8707 5.05781 16.485 4.80808 16.258 4.49618C16.0309 4.18428 15.9061 3.73277 15.7886 3.30127C15.6226 2.69117 15.4661 2.11477 15.0283 1.79656C14.5905 1.47834 14.003 1.50996 13.3751 1.53945C12.9256 1.56053 12.4604 1.58263 12.0816 1.45934C11.7234 1.34291 11.372 1.05894 11.0327 0.784438C10.5537 0.398854 10.0626 0 9.5 0C8.93736 0 8.44631 0.398854 7.96687 0.785026C7.62757 1.05953 7.27618 1.34296 6.91789 1.4594C6.5391 1.58215 6.09439 1.5616 5.62448 1.5395C4.99644 1.51002 4.40325 1.48208 3.97068 1.79661C3.53812 2.11113 3.37641 2.69224 3.21043 3.30181C3.09292 3.7333 2.97178 4.17957 2.741 4.49671C2.51021 4.81386 2.13089 5.05834 1.75949 5.30015C1.24949 5.6326 0.722112 5.97612 0.551954 6.49928C0.390197 6.99717 0.598293 7.54666 0.818 8.12883C0.986606 8.57563 1.14622 8.9976 1.14622 9.40646C1.14622 9.81532 0.988157 10.2373 0.818 10.6846C0.598293 11.2642 0.390197 11.8163 0.551954 12.3136C0.722112 12.8373 1.24949 13.1809 1.75949 13.5133C2.12827 13.7551 2.51396 14.0048 2.74046 14.3167C2.96702 14.6286 3.09239 15.0801 3.20989 15.5116C3.31102 15.8847 3.40959 16.245 3.57081 16.5416L1.6499 21.4541C1.62011 21.5304 1.6106 21.6131 1.6223 21.6942C1.634 21.7753 1.6665 21.8519 1.71664 21.9167C1.76679 21.9815 1.83286 22.0322 1.90842 22.0639C1.98398 22.0955 2.06645 22.107 2.1478 22.0973L4.83474 21.776L6.58972 23.8339C6.64306 23.8963 6.71171 23.9438 6.78893 23.9718C6.86616 23.9997 6.94932 24.0071 7.03027 23.9932C7.11121 23.9794 7.18717 23.9447 7.2507 23.8927C7.31423 23.8406 7.36315 23.773 7.39267 23.6963L9.3078 18.7966C9.43531 18.8178 9.56545 18.8178 9.69296 18.7966L11.6076 23.6963C11.6374 23.7727 11.6865 23.84 11.7502 23.8917C11.8138 23.9433 11.8897 23.9776 11.9705 23.9912C12.0514 24.0048 12.1343 23.9972 12.2113 23.9692C12.2884 23.9411 12.3568 23.8936 12.41 23.8312L14.1649 21.7733L16.8519 22.0947C16.933 22.1043 17.0151 22.0928 17.0905 22.0613C17.1658 22.0298 17.2317 21.9794 17.2818 21.915C17.3319 21.8505 17.3646 21.7743 17.3766 21.6935C17.3886 21.6128 17.3795 21.5303 17.3503 21.4541L15.4287 16.5406C15.5899 16.244 15.6879 15.8836 15.7896 15.5106C15.9066 15.0791 16.0277 14.6329 16.259 14.3157C16.4903 13.9986 16.8691 13.7541 17.2405 13.5123C17.7505 13.1798 18.2784 12.8363 18.4481 12.3132C18.6098 11.8153 18.4023 11.2663 18.1847 10.6846ZM6.79562 22.6158L5.39048 20.9672C5.33973 20.9078 5.27508 20.8619 5.20228 20.8335C5.12949 20.8051 5.0508 20.7951 4.97322 20.8045L2.82153 21.0621L4.3331 17.196C4.7098 17.3162 5.15708 17.2951 5.62389 17.273C5.79774 17.2645 5.97742 17.2561 6.15073 17.2561C6.47104 17.2561 6.71498 17.2867 6.91783 17.3526C7.27608 17.469 7.62699 17.7524 7.96682 18.0275C8.12488 18.1544 8.28295 18.2825 8.44519 18.3962L6.79562 22.6158ZM16.1784 21.0621L14.0272 20.8045C13.9496 20.7952 13.8709 20.8052 13.7981 20.8337C13.7253 20.8622 13.6607 20.9083 13.61 20.9678L12.2043 22.6163L10.5536 18.3973C10.7159 18.2824 10.875 18.1544 11.032 18.0285C11.3713 17.754 11.7227 17.4705 12.081 17.3541C12.4593 17.2314 12.9034 17.2519 13.3749 17.274C13.8465 17.2962 14.289 17.3167 14.6657 17.1971L16.1784 21.0621Z" fill="white"/>
</svg>
