<svg width="14" height="18" viewBox="0 0 14 18" fill="none" xmlns="http://www.w3.org/2000/svg">
<g filter="url(#filter0_d_616_6224)">
<path d="M5.16992 10.1379L6.70737 11.0255L3.5853 16.4325L2.6892 14.4342L5.16992 10.1379Z" fill="#418ED6"/>
<path d="M5.16992 10.1379L3.63247 9.25039L0.510396 14.6574L2.6892 14.4342L5.16992 10.1379Z" fill="#2B63A6"/>
<path d="M7.36133 10.1379L5.82388 11.0255L8.94595 16.4325L9.84205 14.4342L7.36133 10.1379Z" fill="#2B63A6"/>
<path d="M7.36133 10.1379L8.89878 9.25039L12.0209 14.6574L9.84205 14.4342L7.36133 10.1379Z" fill="#418ED6"/>
<path d="M6.26385 11.7502C9.21072 11.7502 11.5996 9.36152 11.5996 6.41498C11.5996 3.46844 9.21072 1.0798 6.26385 1.0798C3.31698 1.0798 0.928066 3.46844 0.928066 6.41498C0.928066 9.36152 3.31698 11.7502 6.26385 11.7502Z" fill="#E3E3E3" stroke="#404040" stroke-width="0.085275"/>
<ellipse cx="6.25873" cy="6.41494" rx="4.13178" ry="4.13131" fill="#595959"/>
<mask id="mask0_616_6224" style="mask-type:alpha" maskUnits="userSpaceOnUse" x="2" y="2" width="9" height="9">
<ellipse cx="6.4871" cy="6.85601" rx="4.1414" ry="4.14092" fill="#C28B37"/>
</mask>
<g mask="url(#mask0_616_6224)">
<ellipse cx="6.26835" cy="6.41491" rx="4.1414" ry="4.14092" fill="url(#paint0_linear_616_6224)"/>
</g>
<path d="M6.27578 3.5343L7.16914 5.32081L8.95585 5.54413L7.72897 6.91974L8.06249 8.89384L6.27578 8.00058L4.48906 8.89384L4.82556 6.91974L3.5957 5.54413L5.38242 5.32081L6.27578 3.5343Z" fill="url(#paint1_linear_616_6224)"/>
</g>
<defs>
<filter id="filter0_d_616_6224" x="0.442953" y="0.970358" width="12.5807" height="16.4643" filterUnits="userSpaceOnUse" color-interpolation-filters="sRGB">
<feFlood flood-opacity="0" result="BackgroundImageFix"/>
<feColorMatrix in="SourceAlpha" type="matrix" values="0 0 0 0 0 0 0 0 0 0 0 0 0 0 0 0 0 0 127 0" result="hardAlpha"/>
<feOffset dx="0.46769" dy="0.46769"/>
<feGaussianBlur stdDeviation="0.267251"/>
<feComposite in2="hardAlpha" operator="out"/>
<feColorMatrix type="matrix" values="0 0 0 0 0 0 0 0 0 0 0 0 0 0 0 0 0 0 0.3 0"/>
<feBlend mode="normal" in2="BackgroundImageFix" result="effect1_dropShadow_616_6224"/>
<feBlend mode="normal" in="SourceGraphic" in2="effect1_dropShadow_616_6224" result="shape"/>
</filter>
<linearGradient id="paint0_linear_616_6224" x1="6.26835" y1="2.27399" x2="6.26835" y2="10.5558" gradientUnits="userSpaceOnUse">
<stop stop-color="#9CA1A3"/>
<stop offset="1" stop-color="#9CA1A3" stop-opacity="0"/>
</linearGradient>
<linearGradient id="paint1_linear_616_6224" x1="6.27578" y1="3.5343" x2="6.27578" y2="8.89384" gradientUnits="userSpaceOnUse">
<stop stop-color="#F1F5F5"/>
<stop offset="0.0001" stop-color="white"/>
<stop offset="1" stop-color="#F1F5F5"/>
</linearGradient>
</defs>
</svg>
